<svg xmlns="http://www.w3.org/2000/svg" width="2569.354" height="1512.325" viewBox="0 0 1284.677 756.162"><path fill="#fff" d="M0 0h1284.677v756.162H0z"/><g fill="none" stroke-linecap="round"><path stroke="#d0bfff" stroke-width=".5" d="M19.397 31.609q0 0 0 0m0 0q0 0 0 0m-4.2 10.93c5.47-4.98 9.9-13.53 14.44-16.61m-14.44 16.61c4.1-6.88 10.01-11.61 14.44-16.61m-15.35 23.76c5.1-7.53 12.89-15.15 21.65-24.91m-21.65 24.91c7.02-8.32 15.27-18.27 21.65-24.91m-21.92 31.31c7.72-8.07 13.64-14.99 28.22-32.46m-28.22 32.46c9.29-11.26 18.68-21.17 28.22-32.46m-27.82 38.1c14.8-13.48 24.88-28.39 31.49-36.23m-31.49 36.23c12.15-13.86 22.98-26.39 31.49-36.23m-31.75 42.63c8.87-10.28 18.88-20.53 36.74-42.27m-36.74 42.27c7.71-9.89 16.58-19.64 36.74-42.27m-37 48.66c12.47-14.32 23.21-29.12 42.64-49.05m-42.64 49.05c16.12-19.05 33.99-38.71 42.64-49.05m-42.25 54.7c15.81-19.01 32.97-40.56 47.24-54.34m-47.24 54.34c13.26-15.52 28.58-31.5 47.24-54.34m-47.5 60.73c16.59-17.5 31.13-36.64 53.14-61.13m-53.14 61.13c20.47-24.38 41.88-46.65 53.14-61.13m-52.75 66.78c14.17-14.66 29.22-30.35 57.74-66.42m-57.74 66.42c12.26-12.93 24.04-27.81 57.74-66.42m-58 72.82c13.55-15.26 28.99-33.82 63.64-73.21m-63.64 73.21c23.94-27.82 49.3-55.27 63.64-73.21m-63.9 79.6c22.26-26.83 46.59-53.35 68.89-79.24m-68.89 79.24c19.69-21.84 39.05-44.93 68.89-79.24m-68.49 84.89c28.41-30.09 54.16-63.97 74.13-85.29m-74.13 85.29c23.04-26.49 47.73-55.2 74.13-85.29m-74.4 91.68c30.54-35.61 59.15-68.83 79.39-91.32m-79.39 91.32c24.24-28.09 48.28-55.91 79.39-91.32m-78.99 96.97c27.39-31.28 53.77-63.13 84.63-97.36m-84.63 97.36c33.19-37.44 64.96-75.1 84.63-97.36m-84.89 103.76c26.14-25.58 48.77-56.52 89.88-103.4m-89.88 103.4c20.88-23.39 42.03-48.2 89.88-103.4m-91.46 111.3c35.75-43.76 72.33-84.08 97.1-111.69m-97.1 111.69c30.85-34.49 61.57-68.76 97.1-111.69m-96.05 116.58c25.18-29.81 49.04-59.23 101.04-116.22m-101.04 116.22c31.24-37.99 62.1-74.71 101.04-116.22m-99.33 120.35c29.16-31.97 56.55-64.8 104.97-120.75m-104.97 120.75c27.06-29.65 51.98-58.22 104.97-120.75m-103.26 124.89c32.15-37.58 62.85-74.55 108.25-124.53m-108.25 124.53c41.92-49.21 83.6-98.21 108.25-124.53m-105.89 127.91c30.14-37.91 63.05-74.72 111.53-128.3m-111.53 128.3c32.54-34.59 62.04-71.21 111.53-128.3m-108.51 130.92c33.01-38.78 67.8-76.11 113.5-130.56m-113.5 130.56c44.44-52.43 87.96-103.83 113.5-130.56m-109.83 132.43c40.68-47.56 82.76-98.22 115.47-132.83m-115.47 132.83c40.67-46.83 80.74-90.99 115.47-132.83m-111.79 134.7c40.11-47.48 80.07-92.81 116.78-134.34m-116.78 134.34c24.95-31.24 51.72-60.88 116.78-134.34m-111.79 134.7c38.43-43.01 75.48-81.98 117.43-135.09m-117.43 135.09c37.4-40.88 74.24-83.06 117.43-135.09m-113.1 136.21c46.12-53.31 92.92-108.06 118.09-135.85m-118.09 135.85c33.44-36.79 66.59-76.31 118.09-135.85m-113.11 136.21c35.06-40.22 67.02-80.44 118.1-135.85m-118.1 135.85c33.78-36.94 66.69-75.59 118.1-135.85m-113.11 136.21c22.57-25.7 46.63-53.44 118.75-136.61m-118.75 136.61c41.29-45.14 82.48-94.1 118.75-136.61m-113.11 136.21c31.45-40.17 67.07-76.96 118.1-135.85m-118.1 135.85c32.48-39.98 66.33-78.96 118.1-135.85m-113.11 136.21c24.63-28.84 47.84-58.31 120.06-138.11m-120.06 138.11c33.62-40.32 69.7-80.34 120.06-138.11m-114.42 137.72c23.01-30.35 49.84-58.35 119.41-137.36m-119.41 137.36c24.12-28.19 47.67-56.22 119.41-137.36m-114.42 137.72c30.43-31.54 61.96-69.5 119.4-137.36m-119.4 137.36c42.01-48.42 85.4-98.17 119.4-137.36m-113.76 136.96c27.74-36.66 60.01-69.74 118.1-135.85m-118.1 135.85c27.7-32.11 55.49-64.38 118.1-135.85m-113.11 136.21c29.21-34.83 57.38-67.48 116.78-134.34m-116.78 134.34c34.7-41.13 70.35-82.33 116.78-134.34m-111.13 133.95c33.55-37.21 67.11-74.88 114.81-132.08m-114.81 132.08c28.37-31.08 56.05-64.27 114.81-132.08m-109.83 132.44c35.4-43.9 71.04-83.72 112.84-129.81m-112.84 129.81c28.77-31.6 56.39-64.15 112.84-129.81m-107.19 129.41c31.73-36.52 61.87-74.52 109.56-126.03m-109.56 126.03c42.46-50.04 86.69-100.01 109.56-126.03m-104.58 126.39c29.48-32.18 55.21-65.72 106.94-123.01m-106.94 123.01c39.91-47.78 82.64-95.6 106.94-123.01m-101.29 122.62c31.14-40.6 65.83-78.53 103.65-119.25m-103.65 119.25c32.45-37.8 64.26-75.6 103.65-119.25m-98.67 119.61c25.53-31.25 52.91-59 99.07-113.96m-99.07 113.96c33.03-37.81 67.71-76.94 99.07-113.96m-93.42 113.56c30.73-31.48 56.83-64.22 94.47-108.67m-94.47 108.67c33.4-38.43 65.42-77.47 94.47-108.67m-89.49 109.03c19-21.01 36.14-43.96 90.54-104.15m-90.54 104.15c35.57-39.29 69.34-79.84 90.54-104.15m-85.55 104.51c25.7-32.24 50.63-62.12 85.94-98.86m-85.94 98.86c24.88-29.55 49.36-57.04 85.94-98.86m-80.3 98.47c27.04-29.41 54.61-62.31 80.04-92.08m-80.04 92.08c30.93-34.66 60.58-69.47 80.04-92.08m-75.05 92.44c17.83-20.25 34.02-38.99 74.79-86.04m-74.79 86.04c20.54-23.63 39.74-45.61 74.79-86.04m-69.15 85.65c17.75-19.42 34.17-38.99 69.54-80m-69.54 80c20.55-22.61 40.37-46.98 69.54-80m-64.55 80.36c20.72-23.52 38.61-45.47 64.29-73.97m-64.29 73.97c14.18-17.41 28.28-34.55 64.29-73.97m-58.65 73.57c16.84-17.33 31.75-33.45 58.39-67.17m-58.39 67.17c14.65-18.1 29.92-35.09 58.39-67.17m-53.4 67.53c11.35-12.87 22.99-24.36 53.8-61.89m-53.8 61.89c14.4-17.71 30.67-35.72 53.8-61.89m-48.16 61.5c12.16-9.67 20.7-21.81 47.89-55.1m-47.89 55.1c15.35-17.19 28.88-34.49 47.89-55.1m-42.9 55.46c17-17.65 30.52-34.31 42.64-49.06m-42.64 49.06c16.17-17.29 31.3-35.52 42.64-49.06m-37 48.66c11.79-15.29 24.65-29.68 37.4-43.02m-37.4 43.02c10.76-11.31 18.7-21.59 37.4-43.02m-33.07 44.14c8.74-8.93 13.3-17.42 32.81-37.74m-32.81 37.74c11.21-13.16 22.46-24.02 32.81-37.74m-26.51 36.59c8.47-10.09 17.65-22.1 26.25-30.19m-26.25 30.19c6.1-7.02 11.01-11.39 26.25-30.19m-19.29 28.28c5.3-8.8 13.38-15.9 18.37-21.13m-18.37 21.13c5.15-6.99 10.06-12.83 18.37-21.13"/><path stroke="#000" d="M43.537 23.449c45.26-2.8 87.09-2.72 136.3 0m-136.3 0c48.55-.09 95.66-.46 136.3 0m0 0c23.04-1.35 31.83 10.8 32 32m-32-32c23.6.68 32.31 9.07 32 32m0 0c-.76 14.39-1.91 33.73 0 74.02m0-74.02c-.51 28.28.46 57.17 0 74.02m0 0c-.31 22.03-10.31 32.27-32 32m32-32c1.9 22.59-10.35 31.22-32 32m0 0c-30.59 1.44-63.3 1.1-136.3 0m136.3 0c-42.54-.36-86.84-.03-136.3 0m0 0c-20.33-1.89-33.5-11.99-32-32m32 32c-19.42-1.13-29.9-10.83-32-32m0 0c1.47-20.7 1.02-43.51 0-74.02m0 74.02c-.09-27.15.95-53.97 0-74.02m0 0c-1.01-22.43 10.48-33.99 32-32m-32 32c.55-23.58 9.51-30.64 32-32"/></g><g dominant-baseline="alphabetic" font-family="Helvetica, Segoe UI Emoji" font-size="20"><text y="16.9" style="white-space:pre" transform="translate(69.523 66.96)">@shared</text><text y="39.9" style="white-space:pre" transform="translate(69.523 66.96)">@testing</text></g><g fill="none" stroke-linecap="round"><path stroke="#a5d8ff" stroke-width=".5" d="M17.86 267.648q0 0 0 0m0 0q0 0 0 0m-5.51 12.43c6.36-6.82 13.13-13.15 15.75-18.11m-15.75 18.11c5.83-5.31 9.5-10.73 15.75-18.11m-16.67 25.27c8.14-9.51 12.46-15.13 22.97-26.42m-22.97 26.42c7.59-8.21 14.6-17.01 22.97-26.42m-23.23 32.81c6.81-9.49 16.64-15.51 29.53-33.96m-29.53 33.96c8.64-11.6 18.15-20.68 29.53-33.96m-29.79 40.36c10.81-10.45 19.13-21.44 35.43-40.75m-35.43 40.75c7.46-8.32 14.97-17.61 35.43-40.75m-35.03 46.4c10.15-13.92 24.59-26.13 40.02-46.04m-40.02 46.04c8.94-10.19 16.1-20.28 40.02-46.04m-40.29 52.43c12.48-15.49 24.87-29.23 45.93-52.83m-45.93 52.83c10.66-10.91 20.52-23.73 45.93-52.83m-45.53 58.48c10.16-15.12 25.08-26.89 50.52-58.12m-50.52 58.12c15.82-18.36 32.99-38.59 50.52-58.12m-50.78 64.51c14.4-15.82 29.95-34.44 56.42-64.9m-56.42 64.9c13.76-16.08 27.64-32.33 56.42-64.9m-56.68 71.3c20.66-22.53 41.57-44.73 61.67-70.94m-61.67 70.94c22.15-24.94 44.6-50.79 61.67-70.94m-61.28 76.59c14.9-20.61 33.85-41.34 66.26-76.23m-66.26 76.23c26.13-27.35 49.78-56.78 66.26-76.23m-66.52 82.62c29.22-31.28 55.26-64.52 72.17-83.02m-72.17 83.02c21.56-26.04 43.93-50.87 72.17-83.02m-71.78 88.67c18.24-20.22 39.66-44.51 76.76-88.3m-76.76 88.3c19.58-23.12 39.17-45.86 76.76-88.3m-77.02 94.69c28.92-33.19 56.59-64.6 82.67-95.09m-82.67 95.09c26.16-30.72 53.4-62.96 82.67-95.09m-82.93 101.49c16.17-20.92 36.38-41.15 87.91-101.13m-87.91 101.13c29.6-35.14 60.1-69.75 87.91-101.13m-87.51 106.77c26.14-30.44 53.11-58.42 93.16-107.16m-93.16 107.16c24.99-27.98 51.47-56.96 93.16-107.16m-93.43 113.56c26.6-31.44 53.56-63.24 98.41-113.2m-98.41 113.2c29.39-30.26 56.65-63.2 98.41-113.2M12.1 377.918c26.09-29.39 49.27-57.92 103.01-118.49M12.1 377.918c40.53-46.19 79.25-90.35 103.01-118.49m-101.3 122.62c26.54-29.77 51.19-58.34 106.28-122.26M13.81 382.048c30.61-34.14 60.73-67.67 106.28-122.26m-104.57 126.4c36.7-42.42 76.59-87.08 110.22-126.79M15.52 386.188c43.06-49.36 86.03-99.32 110.22-126.79M17.88 389.568c24.15-26.51 49.51-56.56 112.84-129.81M17.88 389.568c39.57-45.16 79.43-92.29 112.84-129.81M21.56 391.438c36.13-42.88 77.53-88.9 114.81-132.08M21.56 391.438c26.06-27.64 50.15-56.13 114.81-132.08m-111.8 134.7c42.35-52 87.66-100.94 116.78-134.34M24.57 394.058c33.28-41.35 68.35-80.82 116.78-134.34m-113.1 136.21c24.03-27.94 50.56-57.17 118.75-136.6m-118.75 136.6c28.98-32.96 57.58-67.24 118.75-136.6M33.24 396.288c45.3-50.64 89.87-100.44 118.74-136.6m-118.74 136.6c32.87-37.6 68.12-78.27 118.74-136.6M37.57 397.408c44.07-51.27 90.12-101.22 120.06-138.12M37.57 397.408c31.61-36.43 63.88-73.03 120.06-138.12M42.55 397.768c41.94-51.3 88.64-103.58 120.06-138.12M42.55 397.768c33.2-40.59 67.16-79.08 120.06-138.12M47.54 398.128c41.23-43.26 81.78-88.7 120.72-138.87M47.54 398.128c42.33-48.91 85.99-99.37 120.72-138.87M53.18 397.728c27.93-33.96 57.13-67.27 120.06-138.11M53.18 397.728c30.84-33.93 60.44-69.9 120.06-138.11M58.17 398.088c40.21-47 80.97-92.23 120.06-138.11M58.17 398.088c44.53-49.96 86.87-99.88 120.06-138.11M63.81 397.698c34.1-40.15 69.98-80.27 119.41-137.36M63.81 397.698c35.68-44.23 74.39-87.08 119.41-137.36M68.8 398.058c46.02-53 91.94-106.78 119.4-137.36M68.8 398.058c28.02-31.88 56.63-63.35 119.4-137.36M74.44 397.658c44.04-52.3 87.76-101.01 118.1-135.85m-118.1 135.85c24.41-29.49 50.04-59.56 118.1-135.85M79.43 398.018c26.72-32.23 53.02-58.97 116.78-134.34M79.43 398.018c35.22-40.69 70.52-81.56 116.78-134.34M85.08 397.628c42.54-47.9 85.74-101.21 114.81-132.08M85.08 397.628c27.82-31.12 53.61-62.37 114.81-132.08M90.06 397.988c35.84-42.1 67.25-77.43 112.84-129.81M90.06 397.988c43.91-50.6 87.49-101.62 112.84-129.81M95.71 397.588c37.6-42.34 72.89-83.57 109.56-126.03M95.71 397.588c32.89-37.77 65.39-75.06 109.56-126.03m-104.58 126.39c26.18-28.88 54.52-62.91 106.94-123.01m-106.94 123.01c30.37-34.25 58.88-69.08 106.94-123.01m-101.29 122.62c29.06-38.84 63.32-72.55 103-118.49m-103 118.49c26.55-29.61 53.58-61.88 103-118.49m-98.02 118.85c18.99-22.27 41.45-46.42 98.41-113.21m-98.41 113.21c24.78-28.23 51.76-57.39 98.41-113.21m-92.76 112.81c27.21-33.57 58.33-69.09 93.81-107.92m-93.81 107.92c19.94-21.85 40.32-45.75 93.81-107.92m-88.83 108.28c24.55-26.03 48.55-53.35 88.57-101.88m-88.57 101.88c20.52-20.56 38.44-42.62 88.57-101.88m-83.58 102.24c32.11-37.86 65.57-74.39 83.32-95.84m-83.32 95.84c32.26-36.16 64.54-74.15 83.32-95.84m-77.68 95.45c17.78-23.19 40.45-43.32 77.42-89.06m-77.42 89.06c23.92-26.78 46.25-52.44 77.42-89.06m-72.43 89.42c24.8-27.01 45.56-54.36 72.82-83.77m-72.82 83.77c17.19-21.77 33.68-40.39 72.82-83.77m-67.18 83.38c23.86-26 47.81-50.26 66.92-76.99m-66.92 76.99c17.3-19.47 33.91-37.88 66.92-76.99m-61.93 77.35c19.45-23.85 40.7-48.54 61.67-70.95m-61.67 70.95c24.23-26.04 47.26-54.02 61.67-70.95m-56.03 70.55c12.73-15.12 25.5-30.23 56.42-64.9m-56.42 64.9c17.8-19.48 36.09-38.96 56.42-64.9m-51.43 65.26c11.89-13.55 19.49-22.35 51.17-58.87m-51.17 58.87c12.38-13.46 23.08-27.83 51.17-58.87m-45.53 58.48c17.69-17.56 34.25-39.65 45.27-52.08m-45.27 52.08c12.13-15.49 25.75-29.96 45.27-52.08m-40.28 52.44c11.37-15.72 24.16-29.31 40.68-46.8m-40.68 46.8c16.51-18.54 31.85-36.1 40.68-46.8m-35.04 46.4c9.95-12.62 22.44-25.18 34.77-40m-34.77 40c10.65-11.21 19.44-22.87 34.77-40m-29.78 40.36c5.76-7.38 13.9-16.22 30.18-34.71m-30.18 34.71c7.26-7.2 14.54-16.15 30.18-34.71m-23.88 33.56c5.18-6.75 12.09-14.76 23.62-27.17m-23.62 27.17c9.73-10.07 17.63-20.55 23.62-27.17m-17.32 26.02c5.6-5.78 10.28-11.08 16.4-18.86m-16.4 18.86c4.35-6.11 10.92-10.69 16.4-18.86"/><path stroke="#000" d="M42 259.488c33.64-1.18 64.17-2.77 136.3 0m-136.3 0c36.36-.25 71.47-.82 136.3 0m0 0c23.26.86 31.57 10.02 32 32m-32-32c20.6 2.22 31.39 11.39 32 32m0 0c1.67 29.77.27 58.03 0 74.02m0-74.02c.14 16.89-.29 34.19 0 74.02m0 0c-.72 21.4-9.16 33.61-32 32m32-32c-.77 21.9-9.7 30.8-32 32m0 0c-39.21.01-78.91.18-136.3 0m136.3 0c-50.56 1.44-102.66 1.15-136.3 0m0 0c-22.24.27-31.04-11.75-32-32m32 32c-21.98-.8-33.62-9.71-32-32m0 0c-1.68-24.69-.61-48.99 0-74.02m0 74.02c.04-17.6-.84-36.65 0-74.02m0 0c-.88-22.97 8.95-33.53 32-32m-32 32c-.78-23.43 8.76-33.15 32-32"/></g><text y="16.9" dominant-baseline="alphabetic" font-family="Helvetica, Segoe UI Emoji" font-size="20" style="white-space:pre" transform="translate(80.989 314.996)">@infra</text><g fill="none" stroke-linecap="round"><path stroke="#99e9f2" stroke-width=".5" d="M468.11 31.023q0 0 0 0m0 0q0 0 0 0m-5.51 12.43c4.69-3.15 8.48-8.89 15.75-18.11m-15.75 18.11c4.3-4.76 8.54-10.26 15.75-18.11m-16.67 25.27c5.24-7.52 10.94-14.73 22.97-26.42m-22.97 26.42c7.53-10.27 15.08-19.34 22.97-26.42m-23.23 32.81c7.28-9.99 13.01-15.74 29.53-33.96m-29.53 33.96c11.05-14.29 23.79-26.39 29.53-33.96m-29.79 40.36c10.95-12.08 18.72-20.73 35.43-40.75m-35.43 40.75c7.75-8.83 16.53-17.99 35.43-40.75m-35.03 46.4c11.69-15.42 25.35-27.51 40.02-46.04m-40.02 46.04c13.41-15.72 25.4-31.86 40.02-46.04m-40.29 52.43c16.14-16.01 27.4-32.84 45.93-52.83m-45.93 52.83c11.43-13.72 23.89-28.1 45.93-52.83m-45.53 58.48c20.9-20.98 37.49-44.65 50.52-58.12m-50.52 58.12c16.99-18.6 33.3-38.62 50.52-58.12m-50.78 64.51c17.37-23.72 39.98-43.34 56.42-64.9m-56.42 64.9c22.79-26.37 45.3-52.43 56.42-64.9m-56.68 71.3c11.63-12.09 26.05-27.7 61.67-70.94m-61.67 70.94c11.51-14.68 24.85-30.05 61.67-70.94m-61.28 76.59c16.63-21.69 37.25-42.24 66.26-76.23m-66.26 76.23c24.69-27.1 47.26-53.76 66.26-76.23m-66.52 82.62c20.22-23.61 39.59-49.96 72.17-83.02m-72.17 83.02c27.66-31.19 53.34-62.65 72.17-83.02m-71.78 88.67c22.08-27.36 46.29-53.52 76.76-88.3m-76.76 88.3c27.74-30.55 54.31-63.48 76.76-88.3m-77.02 94.69c27.14-30.32 56.19-63.03 82.67-95.09m-82.67 95.09c19.17-22.59 37.57-43.21 82.67-95.09m-82.93 101.49c34.63-40.98 69.54-81.01 87.91-101.13m-87.91 101.13c32.24-38.13 65.78-77.31 87.91-101.13m-87.51 106.77c23.74-26 46.56-52.44 93.16-107.16m-93.16 107.16c31.27-33.87 60.53-69.84 93.16-107.16m-93.43 113.56c25.64-29.71 49.37-56.22 98.41-113.2m-98.41 113.2c32.94-37.06 65.18-74.69 98.41-113.2m-97.36 118.09c32.6-35.67 65.25-76.4 103.01-118.49m-103.01 118.49c28.03-30.78 54.59-62.49 103.01-118.49m-101.3 122.62c34.25-41.77 69.13-83.7 106.28-122.26m-106.28 122.26c29-32.95 55.3-64.67 106.28-122.26m-104.57 126.4c22.75-26.38 49.15-55.03 110.22-126.79m-110.22 126.79c39.16-44.76 79.34-90.24 110.22-126.79m-107.86 130.17c22.68-25.99 45.05-53.4 112.84-129.81m-112.84 129.81c38.8-43.83 75.11-87.72 112.84-129.81m-109.16 131.68c43.87-50.51 90.62-100.33 114.81-132.08m-114.81 132.08c44.07-50.75 87.83-99.1 114.81-132.08m-111.8 134.7c26.49-28.02 49.03-54.56 116.78-134.34m-116.78 134.34c33.63-37.66 67.61-76.36 116.78-134.34m-113.1 136.21c37.7-44.82 73.49-88.18 118.75-136.6m-118.75 136.6c25.27-28.23 49.57-56.73 118.75-136.6m-113.76 136.96c42.9-50.38 88.7-98.76 118.74-136.6m-118.74 136.6c43.84-47.58 86.81-98.41 118.74-136.6m-114.41 137.72c24.88-30.49 50.69-61.28 120.06-138.12m-120.06 138.12c46.16-53.79 93.75-108.03 120.06-138.12M492.8 161.143c36.27-42.58 73.7-87.89 120.06-138.12M492.8 161.143c40.99-48.68 83.93-98.53 120.06-138.12m-115.07 138.48c39.5-48.08 82.05-96.48 120.72-138.87m-120.72 138.87c47.55-55.29 95.69-109.09 120.72-138.87m-115.08 138.47c41.94-52.98 86.66-100.88 120.06-138.11m-120.06 138.11c45.08-51.16 89.01-101.81 120.06-138.11m-115.07 138.47c36.5-40.17 68.65-80.86 120.06-138.11m-120.06 138.11c36.9-43.45 75.26-88 120.06-138.11m-114.42 137.72c25.46-32.25 53.22-60.9 119.41-137.36m-119.41 137.36c34.96-40.89 69.54-79.85 119.41-137.36m-114.42 137.72c35.96-40.33 75.14-82.64 119.4-137.36m-119.4 137.36c26.75-30.15 50.38-57.98 119.4-137.36m-113.76 136.96c30.04-39.21 63.93-74.93 118.1-135.85m-118.1 135.85c34.96-39.87 69.97-80.97 118.1-135.85m-113.11 136.21c41.44-45.76 78.14-89.22 116.78-134.34m-116.78 134.34c38.31-45.68 79.87-90.89 116.78-134.34m-111.13 133.95c34.41-40.75 68.28-78.31 114.81-132.08m-114.81 132.08c35.95-45.44 74.56-88.18 114.81-132.08m-109.83 132.44c24.23-28.32 49.55-55.62 112.84-129.81m-112.84 129.81c38.39-41.84 73.47-83.68 112.84-129.81m-107.19 129.41c39.08-44.81 80.96-92.08 109.56-126.03m-109.56 126.03c27.28-30.55 55.47-63.69 109.56-126.03m-104.58 126.39c33.09-36.4 61.14-68.98 106.94-123.01m-106.94 123.01c22.22-25.32 43.64-52.42 106.94-123.01m-101.29 122.62c34.53-42 68.61-78.47 103-118.49m-103 118.49c28.21-32.36 58.07-65.77 103-118.49m-98.02 118.85c31.74-39.39 67.8-75.88 98.41-113.21m-98.41 113.21c36.88-43.3 75.56-87.58 98.41-113.21m-92.76 112.81c35.17-36.95 65.77-74.3 93.81-107.92m-93.81 107.92c31.27-34.8 61.72-70.74 93.81-107.92m-88.83 108.28c26.91-32.49 51.53-63.68 88.57-101.88m-88.57 101.88c22.14-28.01 45.46-54.1 88.57-101.88m-83.58 102.24c31.76-35.07 58.47-69.08 83.32-95.84m-83.32 95.84c24.7-29.81 49.03-58.67 83.32-95.84m-77.68 95.45c25.24-30.67 52.76-61.26 77.42-89.06m-77.42 89.06c15.23-18.04 32.14-36.81 77.42-89.06m-72.43 89.42c24.38-30.99 52.05-60.88 72.82-83.77m-72.82 83.77c29.06-31.91 57.53-64.66 72.82-83.77m-67.18 83.38c25.34-28.15 52.96-58.24 66.92-76.99m-66.92 76.99c14.34-15.71 28.18-31.23 66.92-76.99m-61.93 77.35c13.1-15.64 26.08-28.04 61.67-70.95m-61.67 70.95c21.09-24.61 42.19-50.87 61.67-70.95m-56.03 70.55c18.29-21.41 40.42-45.6 56.42-64.9m-56.42 64.9c22.39-23.81 43.73-49.28 56.42-64.9m-51.43 65.26c20.62-22.32 39.52-42.67 51.17-58.87m-51.17 58.87c14.07-15.74 27.16-32.21 51.17-58.87m-45.53 58.48c15.76-17.76 29.57-36.06 45.27-52.08m-45.27 52.08c14.91-16.68 27.66-31.92 45.27-52.08m-40.28 52.44c13.98-16.44 29.71-33.53 40.68-46.8m-40.68 46.8c15.43-16.58 28.5-33.47 40.68-46.8m-35.04 46.4c9.65-9.64 19.52-22.58 34.77-40m-34.77 40c9.35-11.48 19.32-22.14 34.77-40m-29.78 40.36c10.61-13.55 19.72-25.2 30.18-34.71m-30.18 34.71c11.12-12.65 22.8-25.81 30.18-34.71m-23.88 33.56c5.16-4.37 9.39-12.6 23.62-27.17m-23.62 27.17c5.37-6.87 11.31-12.18 23.62-27.17m-17.32 26.02c4.12-7.31 8.93-10.65 16.4-18.86m-16.4 18.86c3.74-3.51 7.02-8.35 16.4-18.86"/><path stroke="#000" d="M492.25 22.863c29.3-1.81 58.23 1.28 136.3 0m-136.3 0c41.36-1.46 84.27-.82 136.3 0m0 0c19.62-.88 31.69 12.42 32 32m-32-32c21.17 1.48 33.11 9.84 32 32m0 0c-.29 20.12-1.25 39.5 0 74.02m0-74.02c-.26 24.92-.07 50.29 0 74.02m0 0c1.34 22.44-12.39 31.79-32 32m32-32c1.34 20.61-8.84 31.09-32 32m0 0c-49.26-1.46-98.99.15-136.3 0m136.3 0c-27 .78-55.53 1.83-136.3 0m0 0c-21.8-1.23-30.45-10.78-32-32m32 32c-21.21-2.01-31.76-10.74-32-32m0 0c-1.17-18.15-.52-39.6 0-74.02m0 74.02c1.29-29.57.02-57.58 0-74.02m0 0c1.85-21.3 11.72-32.66 32-32m-32 32c1.66-20.31 10.12-31.5 32-32"/></g><text y="16.9" dominant-baseline="alphabetic" font-family="Helvetica, Segoe UI Emoji" font-size="20" style="white-space:pre" transform="translate(531.24 78.371)">@core</text><g fill="none" stroke-linecap="round"><path stroke="#96f2d7" stroke-width=".5" d="M472.667 273.938q0 0 0 0m0 0q0 0 0 0m-5.51 12.43c5.07-3.46 7.12-6.43 15.75-18.11m-15.75 18.11c4.84-4.84 9.46-9.76 15.75-18.11m-16.67 25.27c7.29-9.33 12.79-17.83 22.97-26.42m-22.97 26.42c4.5-5.83 8.97-11.51 22.97-26.42m-23.23 32.81c10.29-13.59 23.46-24.43 29.53-33.96m-29.53 33.96c10.98-11.11 21.93-25.11 29.53-33.96m-29.79 40.36c6.81-8.77 14.24-18.42 35.43-40.75m-35.43 40.75c12.93-16.06 27.49-32.29 35.43-40.75m-35.03 46.4c11.55-13.78 23.62-29.91 40.02-46.04m-40.02 46.04c13.74-15.72 28.57-33.25 40.02-46.04m-40.29 52.43c13.97-18.73 30.71-37.43 45.93-52.83m-45.93 52.83c17.88-21.34 36.64-41.34 45.93-52.83m-45.53 58.48c16.65-23.05 35.7-41.42 50.52-58.12m-50.52 58.12c19.47-21.56 37.92-42.9 50.52-58.12m-50.78 64.51c18.06-18.38 31.41-37.43 56.42-64.9m-56.42 64.9c17.06-20.59 35.12-41.8 56.42-64.9m-56.68 71.3c13.1-17.22 27.9-30.97 61.67-70.94m-61.67 70.94c18.15-21.29 35.98-40.97 61.67-70.94m-61.28 76.59c19.43-21.96 42.56-45.81 66.26-76.23m-66.26 76.23c15.02-17 27.52-32.03 66.26-76.23m-66.52 82.62c17.96-24.43 39.28-45.68 72.17-83.02m-72.17 83.02c21.52-24.04 43.06-49.66 72.17-83.02m-71.78 88.67c27.78-30.18 50.95-58.08 76.76-88.3m-76.76 88.3c24.92-30.3 52.84-59.81 76.76-88.3m-77.02 94.69c24.82-29.85 49.12-56.41 82.67-95.09m-82.67 95.09c25.63-32.91 53.54-63.35 82.67-95.09m-82.93 101.49c18.58-21.95 38.55-43.09 87.91-101.13m-87.91 101.13c30.06-32.58 57.02-65.08 87.91-101.13m-87.51 106.77c33.17-38.05 69.07-78.45 93.16-107.16m-93.16 107.16c23.23-25.86 47.3-54.25 93.16-107.16m-93.43 113.56c30.58-33.56 56.2-63.34 98.41-113.2m-98.41 113.2c20.48-23.29 40.09-48.31 98.41-113.2m-97.36 118.09c34.54-42 68.62-78.47 103.01-118.49m-103.01 118.49c28.22-32.35 58.08-65.77 103.01-118.49m-101.3 122.62c34.4-42.44 73.12-81.98 106.28-122.26m-106.28 122.26c39.84-46.75 81.56-94.52 106.28-122.26m-104.57 126.4c41.03-43.62 77.38-87.58 110.22-126.79m-110.22 126.79c36.72-41.04 72.56-83.17 110.22-126.79m-107.86 130.17c34.21-41.01 66.17-80.64 112.84-129.81m-112.84 129.81c28.4-35.62 58.12-69.08 112.84-129.81m-109.16 131.68c43.2-48.15 81.03-94.96 114.81-132.08m-114.81 132.08c34.09-40.75 67.93-80.55 114.81-132.08m-111.8 134.7c38.87-46.79 80.07-93.13 116.78-134.34m-116.78 134.34c23.4-27 48.4-55.08 116.78-134.34m-113.1 136.21c40.92-50.42 85.43-99.68 118.75-136.6m-118.75 136.6c47.32-51.89 93.53-105.04 118.75-136.6m-113.76 136.96c45.44-50.92 92.82-103.73 118.74-136.6m-118.74 136.6c25.01-27.31 49.33-54.87 118.74-136.6m-114.41 137.72c24.93-28.93 49.88-55.11 120.06-138.12m-120.06 138.12c41.17-48.65 82.93-98.66 120.06-138.12m-115.08 138.48c41.1-46.85 85.44-96.59 120.06-138.12m-120.06 138.12c47.08-51.63 92.68-105.03 120.06-138.12m-115.07 138.48c46.56-51.63 91.36-101.77 120.72-138.87m-120.72 138.87c32.51-37.17 63.87-74.65 120.72-138.87m-115.08 138.47c41.3-46.07 80.32-93.37 120.06-138.11m-120.06 138.11c37.92-43.77 73.69-85.48 120.06-138.11m-115.07 138.47c42.75-48.89 87.13-98.93 120.06-138.11m-120.06 138.11c44.06-49.33 85.54-98.9 120.06-138.11m-114.42 137.72c31.84-36.55 64.54-75.76 119.41-137.36m-119.41 137.36c32.57-38.51 66.33-76.53 119.41-137.36m-114.42 137.72c42.54-50.21 83.07-98.02 119.4-137.36m-119.4 137.36c44.57-49.74 89.23-100.84 119.4-137.36m-113.76 136.96c26-27.85 50.17-59.02 118.1-135.85m-118.1 135.85c28.05-33.17 56.39-64.25 118.1-135.85m-113.11 136.21c35.05-43.38 71.71-83.37 116.78-134.34m-116.78 134.34c25.47-28.12 50.29-57.73 116.78-134.34m-111.13 133.95c30.92-34.38 60.03-68.75 114.81-132.08m-114.81 132.08c27.05-33.21 56.6-64.48 114.81-132.08m-109.83 132.44c34.9-43.5 71.51-84.78 112.84-129.81m-112.84 129.81c33.86-39.25 67-77.78 112.84-129.81m-107.19 129.41c27.9-33.4 57.7-67.41 109.56-126.03m-109.56 126.03c25.18-29.03 49.25-55.8 109.56-126.03m-104.58 126.39c44.27-48.48 86.77-96.71 106.94-123.01m-106.94 123.01c42.64-49.04 85.23-99.08 106.94-123.01m-101.29 122.62c32.1-39.29 65.55-75.74 103-118.49m-103 118.49c19.1-24.19 41.2-47.92 103-118.49m-98.02 118.85c28.22-34.61 56.98-67.41 98.41-113.21m-98.41 113.21c20.57-22.58 38.92-46 98.41-113.21m-92.76 112.81c18.68-22.99 35.52-44.48 93.81-107.92m-93.81 107.92c25.36-28.44 50.56-56.36 93.81-107.92m-88.83 108.28c28.91-36.78 62.16-68.58 88.57-101.88m-88.57 101.88c32.82-36.32 64.74-73.74 88.57-101.88m-83.58 102.24c17.06-17.95 35.46-39.2 83.32-95.84m-83.32 95.84c21.03-22.2 38.58-44.16 83.32-95.84m-77.68 95.45c27.41-31.57 53.14-65.43 77.42-89.06m-77.42 89.06c17.09-19.93 34.19-39.57 77.42-89.06m-72.43 89.42c24.12-25.69 47.97-52.39 72.82-83.77m-72.82 83.77c25.42-30 51.62-59.31 72.82-83.77m-67.18 83.38c22.54-23.88 44.43-52.66 66.92-76.99m-66.92 76.99c21.65-25.21 42.27-50.06 66.92-76.99m-61.93 77.35c23.61-27.93 48.89-53.56 61.67-70.95m-61.67 70.95c13.98-15.66 27.32-30.32 61.67-70.95m-56.03 70.55c22.13-23.79 44.45-51.61 56.42-64.9m-56.42 64.9c15.68-18.77 31.55-35.91 56.42-64.9m-51.43 65.26c21.24-23.18 39.88-43.03 51.17-58.87m-51.17 58.87c11.92-13.82 23.64-28.29 51.17-58.87m-45.53 58.48c17.12-18.17 32.1-37.7 45.27-52.08m-45.27 52.08c11.73-15.09 26.49-30.72 45.27-52.08m-40.28 52.44c14.37-13.08 25.12-27.43 40.68-46.8m-40.68 46.8c15.35-18.22 31.52-35.82 40.68-46.8m-35.04 46.4c9.1-11.63 18.73-23.26 34.77-40m-34.77 40c8.59-9.37 16.16-20.28 34.77-40m-29.78 40.36c8.05-12.68 21.22-24.12 30.18-34.71m-30.18 34.71c6.85-8.86 14.81-16.92 30.18-34.71m-23.88 33.56c4.76-5.31 10.64-15.7 23.62-27.17m-23.62 27.17c6.2-5.31 10.8-12.18 23.62-27.17m-17.32 26.02c2.34-5.5 6.48-7.41 16.4-18.86m-16.4 18.86c6.35-7.51 12.42-14.18 16.4-18.86"/><path stroke="#000" d="M496.807 265.778c28.29-1.38 57.87-1.47 136.3 0m-136.3 0c36.36.2 74.72-.83 136.3 0m0 0c20.46.83 33.97 8.71 32 32m-32-32c21.97-1.16 32.37 11.74 32 32m0 0c.43 27.33-1.81 54.25 0 74.02m0-74.02c-.13 21.92.24 43.85 0 74.02m0 0c.33 23.14-10.01 30.25-32 32m32-32c-.83 21.43-10.05 34.04-32 32m0 0c-50.69.65-102.48-.78-136.3 0m136.3 0c-36.91-1.67-72.23-.33-136.3 0m0 0c-22.26-.95-33.01-12.42-32-32m32 32c-23.31.73-33.94-9.7-32-32m0 0c-.23-27.64-1.12-53.47 0-74.02m0 74.02c.05-20.72-.27-42.44 0-74.02m0 0c-.52-20.73 11.33-32.63 32-32m-32 32c1.81-19.49 11.38-33.12 32-32"/></g><text y="16.9" dominant-baseline="alphabetic" font-family="Helvetica, Segoe UI Emoji" font-size="20" style="white-space:pre" transform="translate(522.834 321.287)">@modules</text><g fill="none" stroke-linecap="round"><path stroke="#b2f2bb" stroke-width=".5" d="M575.697 447.904q0 0 0 0m0 0q0 0 0 0m-4.2 10.93c5.05-6.35 12.23-14.19 14.44-16.61m-14.44 16.61c6-5.29 9.91-10.87 14.44-16.61m-15.35 23.76c7.41-6.54 13.83-15.74 21.65-24.91m-21.65 24.91c6.64-8.31 12.11-16.04 21.65-24.91m-21.92 31.31c5.88-9.39 13.22-16.38 28.22-32.46m-28.22 32.46c11-11.96 19.6-23.5 28.22-32.46m-27.82 38.1c9.09-12.71 16.94-23.48 31.49-36.23m-31.49 36.23c10.12-12.38 21.37-24.79 31.49-36.23m-31.75 42.63c5.95-9.2 15.49-18.8 36.74-42.27m-36.74 42.27c12.3-15.64 26.26-30.72 36.74-42.27m-37 48.66c17.17-19.02 34.33-38.74 42.64-49.05m-42.64 49.05c16.23-18.11 33.54-37.18 42.64-49.05m-42.25 54.7c10.83-12.01 21.03-22.92 47.24-54.34m-47.24 54.34c9.87-11.55 19.73-21.63 47.24-54.34m-47.5 60.73c18.02-20.3 35.41-44.26 53.14-61.13m-53.14 61.13c18.08-20.66 37.84-42.77 53.14-61.13m-52.75 66.78c23.41-23.52 45.06-50.28 57.74-66.42m-57.74 66.42c22.3-24.71 43.73-48.65 57.74-66.42m-58 72.82c17.88-19.55 33.89-40.8 63.64-73.21m-63.64 73.21c21.88-24.41 42.61-49.45 63.64-73.21m-63.9 79.6c23.16-25.51 41.99-48.31 68.89-79.24m-68.89 79.24c24.59-28.06 49.97-56.76 68.89-79.24m-68.49 84.89c28.26-30.17 51.82-60.99 74.13-85.29m-74.13 85.29c19.69-22.86 39.94-46.95 74.13-85.29m-74.4 91.68c21.4-26.1 44.11-50.61 79.39-91.32m-79.39 91.32c28.32-33.18 55.52-65.06 79.39-91.32m-78.99 96.97c31.35-35.39 63.67-72.04 84.63-97.36m-84.63 97.36c18.64-20.29 36.12-42.08 84.63-97.36m-84.89 103.76c20.97-25.62 42.96-47.87 89.88-103.4m-89.88 103.4c27.23-33.01 55.55-64.5 89.88-103.4m-91.46 111.3c21.4-22.79 41.76-48.33 97.1-111.69m-97.1 111.69c26-29.3 51.01-58.51 97.1-111.69m-96.05 116.58c23-29.84 50.25-55.72 101.04-116.22m-101.04 116.22c31.05-38.38 63.45-75.23 101.04-116.22m-99.33 120.35c32.39-37.2 63.08-73.33 104.97-120.75m-104.97 120.75c27.34-32.31 55.73-64.83 104.97-120.75m-103.26 124.89c24.93-29 48.56-54.34 108.25-124.53m-108.25 124.53c44.11-48.96 87.09-98.08 108.25-124.53m-105.89 127.91c44.53-50.62 88.92-103.79 111.53-128.3m-111.53 128.3c34.79-41.48 70.01-80.98 111.53-128.3m-108.51 130.92c20.51-26.98 46.17-53.1 113.5-130.56m-113.5 130.56c33.46-39.17 66.99-77.6 113.5-130.56m-109.83 132.43c24.62-26.37 45.06-54.5 115.47-132.83m-115.47 132.83c22.75-27.19 44.97-53.81 115.47-132.83m-111.79 134.7c31.28-35.52 62.86-69.69 116.78-134.34m-116.78 134.34c39.02-47.2 80.75-91.97 116.78-134.34m-111.79 134.7c43.86-47.5 86.25-97.65 117.43-135.09m-117.43 135.09c23.46-26.94 48.36-55.62 117.43-135.09m-113.1 136.21c30.31-31.91 54.14-62.85 118.09-135.85m-118.09 135.85c41.19-48.85 82.46-98.45 118.09-135.85m-113.11 136.21c26.25-30.5 52.25-60.37 118.1-135.85m-118.1 135.85c38.76-42.79 77.15-86.59 118.1-135.85m-113.11 136.21c41.55-48.88 84.48-96.59 118.75-136.61m-118.75 136.61c40.18-44.56 79.93-92.09 118.75-136.61m-113.11 136.21c38.21-44.45 74.36-88.31 118.1-135.85m-118.1 135.85c45.74-53.23 92.32-105.09 118.1-135.85m-113.11 136.21c27.26-30.53 53.25-59.04 120.06-138.11m-120.06 138.11c46.3-52.94 92.37-107.02 120.06-138.11m-114.42 137.72c33.22-39.67 66.77-76.04 119.41-137.36m-119.41 137.36c46.81-51.84 91.61-102.58 119.41-137.36m-114.42 137.72c27.79-32.33 55.27-65.89 119.4-137.36m-119.4 137.36c45.09-50.92 88.22-101.68 119.4-137.36m-113.76 136.96c31.13-39.48 68.55-79.83 118.1-135.85m-118.1 135.85c37.96-40.62 73.33-82.3 118.1-135.85m-113.11 136.21c44-52.09 89.94-102.94 116.78-134.34m-116.78 134.34c31.24-36.4 63.34-73.6 116.78-134.34m-111.13 133.95c27.86-31.38 54.13-66 114.81-132.08m-114.81 132.08c36.44-44.55 75.88-88.05 114.81-132.08m-109.83 132.44c26.69-32.27 55.7-63.46 112.84-129.81m-112.84 129.81c28.5-32.33 57.73-67.75 112.84-129.81m-107.19 129.41c26.51-27.21 49.91-57.3 109.56-126.03m-109.56 126.03c24.5-30.14 50.8-58.97 109.56-126.03m-104.58 126.39c39.18-46.84 78.39-91.33 106.94-123.01m-106.94 123.01c40-45.61 80.05-92.12 106.94-123.01m-101.29 122.62c41.64-44.49 80.47-94.08 103.65-119.25m-103.65 119.25c38.75-42.76 77.04-87.17 103.65-119.25m-98.67 119.61c31.63-35.84 60.91-66.36 99.07-113.96m-99.07 113.96c25.02-30.66 50.66-59.23 99.07-113.96m-93.42 113.56c28.25-31.17 56.76-63.18 94.47-108.67m-94.47 108.67c26.27-31.91 55.19-63.51 94.47-108.67m-89.49 109.03c30.57-35.6 61.74-71.94 90.54-104.15m-90.54 104.15c21.94-25.93 43.97-51.8 90.54-104.15m-85.55 104.51c30.69-36.02 59.68-71.03 85.94-98.86m-85.94 98.86c27.47-29.57 53.38-61.6 85.94-98.86m-80.3 98.47c18.98-22.83 41.86-49.32 80.04-92.08m-80.04 92.08c20.26-22.55 38.73-43.7 80.04-92.08m-75.05 92.44c18.19-20.93 34.15-36.25 74.79-86.04m-74.79 86.04c27.87-32.72 56.4-65.36 74.79-86.04m-69.15 85.65c19.68-23.32 41.98-48.01 69.54-80m-69.54 80c18.17-21.11 34.88-42.21 69.54-80m-64.55 80.36c23.06-27.68 46.08-54.53 64.29-73.97m-64.29 73.97c24.97-29.3 51.46-58.19 64.29-73.97m-58.65 73.57c21.88-27.9 46.27-54.64 58.39-67.17m-58.39 67.17c16.18-20.11 33.55-39.14 58.39-67.17m-53.4 67.53c15.35-15.92 28.97-33.7 53.8-61.89m-53.8 61.89c15.68-17.23 29.28-34.35 53.8-61.89m-48.16 61.5c19.16-19.29 35.77-40.35 47.89-55.1m-47.89 55.1c11.05-13.32 22.04-26.81 47.89-55.1m-42.9 55.46c17.6-18.79 31.55-34.78 42.64-49.06m-42.64 49.06c11.71-13.47 25.61-28.02 42.64-49.06m-37 48.66c11.73-16.2 23.69-28.08 37.4-43.02m-37.4 43.02c13.61-14.97 27.07-30.2 37.4-43.02m-33.07 44.14c12.86-13.59 23.02-29.65 32.81-37.74m-32.81 37.74c10.84-13.83 22.48-27.15 32.81-37.74m-26.51 36.59c8.76-10.29 14.08-18.76 26.25-30.19m-26.25 30.19c5.45-6.45 10.03-12.76 26.25-30.19m-19.29 28.28c6.02-7.41 14.87-14.48 18.37-21.13m-18.37 21.13c4.88-6.05 10.72-12.41 18.37-21.13"/><path stroke="#000" d="M599.837 439.744c50.65 1.1 100.06.92 136.3 0m-136.3 0c51.58-1.58 101.96-1.44 136.3 0m0 0c21.52 1.56 31.72 9.47 32 32m-32-32c23.22.94 33.24 8.93 32 32m0 0c-.96 16.5-.81 32.43 0 74.02m0-74.02c-.74 22.97.29 45.98 0 74.02m0 0c-1.89 19.93-11.71 32.95-32 32m32-32c-1.96 19.06-8.82 30.49-32 32m0 0c-43.78-.69-89.27 2.16-136.3 0m136.3 0c-40.81 1.02-83.65.46-136.3 0m0 0c-21.04 1.58-33.05-11.64-32-32m32 32c-20.48-.72-31.5-8.87-32-32m0 0c-1.16-27.46 2.12-58.02 0-74.02m0 74.02c.07-19.92-.24-38.48 0-74.02m0 0c-1.74-23.15 11.33-33.14 32-32m-32 32c1.93-21.85 8.74-32.76 32-32"/></g><text y="16.9" dominant-baseline="alphabetic" font-family="Helvetica, Segoe UI Emoji" font-size="20" style="white-space:pre" transform="translate(620.864 496.141)">submodules</text><g fill="none" stroke-linecap="round"><path stroke="#ffc9c9" stroke-width=".5" d="M1082.24 265.619q0 0 0 0m0 0q0 0 0 0m-4.2 10.93c3.87-5.39 5.25-6.13 14.44-16.61m-14.44 16.61c5.25-4.08 8.48-10.64 14.44-16.61m-15.35 23.76c8.35-7.37 16.03-17.42 21.65-24.91m-21.65 24.91c6.01-7.54 12.74-14.31 21.65-24.91m-21.92 31.31c6.92-11.88 18.68-19.41 28.22-32.46m-28.22 32.46c6.56-8.05 13.4-16.07 28.22-32.46m-27.82 38.1c7.24-10.04 14.19-16.21 31.49-36.23m-31.49 36.23c10.61-13.75 23.03-26 31.49-36.23m-31.75 42.63c10.68-13.78 22.12-27.32 36.74-42.27m-36.74 42.27c10.31-10.57 19.94-22.2 36.74-42.27m-37 48.66c12.69-11.1 20.32-22.73 42.64-49.05m-42.64 49.05c14.73-18.47 30.45-34.97 42.64-49.05m-42.25 54.7c15.58-19.8 29.24-38.45 47.24-54.34m-47.24 54.34c18.33-20.09 38.1-41.28 47.24-54.34m-47.5 60.73c15.99-21.34 36.05-40.31 53.14-61.13m-53.14 61.13c18.01-20.44 35.67-41.89 53.14-61.13m-52.75 66.78c19.38-20.13 37.36-40.47 57.74-66.42m-57.74 66.42c19.07-21.74 37.45-44.37 57.74-66.42m-58 72.82c16.93-20.71 36.41-40.94 63.64-73.21m-63.64 73.21c19.1-20.47 38.09-43.06 63.64-73.21m-63.9 79.6c21.28-24.39 38.38-45.96 68.89-79.24m-68.89 79.24c25.75-29.2 51.44-58.4 68.89-79.24m-68.49 84.89c21.69-28.63 46.14-54.38 74.13-85.29m-74.13 85.29c20.71-22.28 39.82-46.71 74.13-85.29m-74.4 91.68c31.52-35.82 60.95-68.38 79.39-91.32m-79.39 91.32c23.82-27.06 47.7-54.88 79.39-91.32m-78.99 96.97c25.87-28.9 51.85-56.45 84.63-97.36m-84.63 97.36c17.45-21.56 35.38-42.91 84.63-97.36m-84.89 103.76c34.58-37.41 68.97-78.13 89.88-103.4m-89.88 103.4c28.07-32.71 56.17-65.13 89.88-103.4m-91.46 111.3c26.88-33.15 58.07-64.89 97.1-111.69m-97.1 111.69c31.67-36.85 65.57-74.44 97.1-111.69m-96.05 116.58c20.91-26.35 43.8-51.91 101.04-116.22m-101.04 116.22c24.77-27.91 48.87-55.76 101.04-116.22m-99.33 120.35c21.73-28.67 48.09-54.5 104.97-120.75m-104.97 120.75c39.61-47.27 80.59-93.73 104.97-120.75m-103.26 124.89c26.93-26.49 51.51-54.44 108.25-124.53m-108.25 124.53c38.1-43.31 76.01-88.02 108.25-124.53m-105.89 127.91c29.58-32.38 60.63-70.27 111.53-128.3m-111.53 128.3c36.68-42.54 74.81-87.86 111.53-128.3m-108.51 130.92c35.67-42.15 71.1-83.06 113.5-130.56m-113.5 130.56c45.15-50.92 87.43-99.68 113.5-130.56m-109.83 132.43c27.66-28.73 52.65-59.71 115.47-132.83m-115.47 132.83c38.18-44.74 76.34-88.48 115.47-132.83m-111.79 134.7c24.11-28.37 50.96-57.79 116.78-134.34m-116.78 134.34c30.77-35.36 61.13-69.95 116.78-134.34m-111.79 134.7c33.51-39.02 71.64-79.9 117.43-135.09m-117.43 135.09c37.09-41.05 73.43-84.31 117.43-135.09m-113.1 136.21c41.24-50.6 87.11-101.36 118.09-135.85m-118.09 135.85c24.5-30.47 51.02-59.7 118.09-135.85m-113.11 136.21c47.3-54.31 90.96-103.53 118.1-135.85m-118.1 135.85c47.9-53.14 94.28-107.45 118.1-135.85m-113.11 136.21c34.9-38.45 69.72-79.18 118.75-136.61m-118.75 136.61c29.71-34.76 60.08-68.19 118.75-136.61m-113.11 136.21c43.09-48.06 86.63-98.11 118.1-135.85m-118.1 135.85c35.58-40.08 71.45-82.87 118.1-135.85m-113.11 136.21c25-25.51 50.2-54.79 120.06-138.11m-120.06 138.11c31.55-36.32 63.96-73.1 120.06-138.11m-114.42 137.72c26.64-27.87 51.94-56.47 119.41-137.36m-119.41 137.36c38.8-44.71 77.73-89.47 119.41-137.36m-114.42 137.72c46.03-49.91 89.61-103.87 119.4-137.36m-119.4 137.36c39.41-45.82 78.38-91.78 119.4-137.36m-113.76 136.96c29.44-32.64 61.21-68.7 118.1-135.85m-118.1 135.85c47-52.75 92.64-106.27 118.1-135.85m-113.11 136.21c27.8-31.43 52.52-64.59 116.78-134.34m-116.78 134.34c30.03-31.07 58.57-63.36 116.78-134.34m-111.13 133.95c41.1-45.83 81.68-95.18 114.81-132.08m-114.81 132.08c37.83-43.27 76.7-87.58 114.81-132.08m-109.83 132.44c22.73-25.53 45.29-52.58 112.84-129.81m-112.84 129.81c40.49-46.43 82.3-92.22 112.84-129.81m-107.19 129.41c34.65-37.72 70.17-77.15 109.56-126.03m-109.56 126.03c30.33-35.65 60.89-69.38 109.56-126.03m-104.58 126.39c28.28-32.86 57.35-66.13 106.94-123.01m-106.94 123.01c35.64-38.68 70.35-79.9 106.94-123.01m-101.29 122.62c25.01-28.98 54.56-60.56 103.65-119.25m-103.65 119.25c23.55-28.13 49.3-54.54 103.65-119.25m-98.67 119.61c21.15-25.79 43.7-51.11 99.07-113.96m-99.07 113.96c39.21-44.58 77.97-87.57 99.07-113.96m-93.42 113.56c24.9-30.38 50.81-59.06 94.47-108.67m-94.47 108.67c26.87-32.31 54.49-63.61 94.47-108.67m-89.49 109.03c25.41-28.42 46.24-54.12 90.54-104.15m-90.54 104.15c26.74-30.2 51.69-59.19 90.54-104.15m-85.55 104.51c26.63-33.85 58.09-65.29 85.94-98.86m-85.94 98.86c20.68-26.58 42.86-51.25 85.94-98.86m-80.3 98.47c27.97-28.9 53.53-58.72 80.04-92.08m-80.04 92.08c28.1-31.37 55.32-61.97 80.04-92.08m-75.05 92.44c16.09-20.77 30.39-35.96 74.79-86.04m-74.79 86.04c29.75-33.99 57.87-67.17 74.79-86.04m-69.15 85.65c26.55-28.59 48.68-57.01 69.54-80m-69.54 80c24.67-27.3 49.28-54.44 69.54-80m-64.55 80.36c24.9-25.6 46.38-56.22 64.29-73.97m-64.29 73.97c18.5-19.21 35.93-40.35 64.29-73.97m-58.65 73.57c19.39-22.66 39.09-43.28 58.39-67.17m-58.39 67.17c18.79-21.48 35.63-42.83 58.39-67.17m-53.4 67.53c14.52-14.95 22.8-28.33 53.8-61.89m-53.8 61.89c18.49-20.94 38.34-42.68 53.8-61.89m-48.16 61.5c14.09-16.99 29.52-31.94 47.89-55.1m-47.89 55.1c15.19-18.29 32.3-36.49 47.89-55.1m-42.9 55.46c11.87-16.44 27.44-31.85 42.64-49.06m-42.64 49.06c16.42-18.65 31.23-37.55 42.64-49.06m-37 48.66c8.3-7.77 14.96-18.28 37.4-43.02m-37.4 43.02c10.06-12.39 20.91-23.44 37.4-43.02m-33.07 44.14c12.46-13.62 23.85-26.13 32.81-37.74m-32.81 37.74c11.51-12.94 24.23-27.21 32.81-37.74m-26.51 36.59c9.61-11.96 19.35-19.16 26.25-30.19m-26.25 30.19c8.12-9.68 15.09-18.34 26.25-30.19m-19.29 28.28c5.21-6.76 11.97-12.68 18.37-21.13m-18.37 21.13c4.64-5.23 10.87-12.28 18.37-21.13"/><path stroke="#000" d="M1106.38 257.459c37.84-2.07 75.48-.63 136.3 0m-136.3 0c42.66-.7 86.56-.58 136.3 0m0 0c19.89.12 31.39 12.02 32 32m-32-32c23.05.62 33.62 11.84 32 32m0 0c-.94 19.12-.89 39.02 0 74.02m0-74.02c.95 23.59-.19 46.51 0 74.02m0 0c-.58 22.73-11.57 30.07-32 32m32-32c-.44 21.09-9.92 31-32 32m0 0c-28.81 2.28-58.33-.21-136.3 0m136.3 0c-32.62.48-64.6 1.61-136.3 0m0 0c-20.99 1.61-33.14-11.59-32-32m32 32c-22.96-1.53-30.59-12.63-32-32m0 0c1.13-21.05-.44-42.65 0-74.02m0 74.02c.17-21.26.39-42.37 0-74.02m0 0c1.04-21.47 9.23-33.11 32-32m-32 32c.88-19.23 11.03-29.77 32-32"/></g><text y="16.9" dominant-baseline="alphabetic" font-family="Helvetica, Segoe UI Emoji" font-size="20" style="white-space:pre" transform="translate(1151.622 323.547)">/apps</text><g fill="none" stroke-linecap="round"><path stroke="#a5d8ff" stroke-width=".5" d="M20.72 438.25q0 0 0 0m0 0q0 0 0 0m-4.2 10.93c2.4-5.69 9.81-10.87 14.44-16.61m-14.44 16.61c4.63-5.37 9.42-11.12 14.44-16.61m-15.35 23.76c5.2-6.82 10.57-14.07 21.65-24.91m-21.65 24.91c7.79-9.09 14.57-17.73 21.65-24.91m-21.92 31.31c10.16-9 17.27-21.61 28.22-32.46m-28.22 32.46c6.45-7.96 14.8-17.64 28.22-32.46m-27.82 38.1c9.36-9.68 15.35-16.41 31.49-36.23m-31.49 36.23c7.8-8.97 14.52-15.18 31.49-36.23m-31.75 42.63c13.48-16.07 27.1-31.4 36.74-42.27m-36.74 42.27c10.42-12.34 22.17-25.38 36.74-42.27m-37 48.66c12.09-12.75 20.37-26.05 42.64-49.05m-42.64 49.05c15.29-18.2 30.54-35.94 42.64-49.05m-42.25 54.7c17.08-21.94 37.63-42.42 47.24-54.34m-47.24 54.34c17.94-22.24 37.31-43.86 47.24-54.34m-47.5 60.73c13.73-18.83 29.48-35.05 53.14-61.13M15.35 493.2c14.88-16.46 29.12-33.89 53.14-61.13m-52.75 66.78c17.58-18.32 30.82-36.48 57.74-66.42m-57.74 66.42c22.63-24.41 43.77-49.71 57.74-66.42m-58 72.82c14.39-18.07 28.7-36.23 63.64-73.21m-63.64 73.21c24.52-27.42 47.1-53.36 63.64-73.21m-63.9 79.6c18.66-21.47 41.6-44.98 68.89-79.24m-68.89 79.24c23.12-27.31 46.02-52.7 68.89-79.24m-68.49 84.89C42.6 487.62 69.28 457.43 89.75 432m-74.13 85.29c27.71-31.54 54.6-64.66 74.13-85.29m-74.4 91.68c26.64-33.36 54.77-65.6 79.39-91.32m-79.39 91.32c23.68-26.69 45.36-52.8 79.39-91.32m-78.99 96.97c17.37-20.58 33.34-41.02 84.63-97.36m-84.63 97.36c29.81-35.48 61.34-70.2 84.63-97.36M15.49 535.73c24.93-30.62 52.3-61.39 89.88-103.4m-89.88 103.4c25.21-29.68 50.04-58.34 89.88-103.4m-91.46 111.3c33.81-38.72 68.5-80.66 97.1-111.69m-97.1 111.69c32.08-38.76 65.85-78.36 97.1-111.69M14.96 548.52C33.53 525.28 55.17 498.72 116 432.3M14.96 548.52C49.33 510.62 80.32 473.7 116 432.3M16.67 552.65c23.47-30.57 50.69-59.54 104.97-120.75M16.67 552.65c27.81-31.47 56.72-64.1 104.97-120.75M18.38 556.79c32.72-40 67.21-76.34 108.25-124.53M18.38 556.79c24.71-27.49 48.99-54.74 108.25-124.53M20.74 560.17c32.55-36.93 62.43-74.97 111.53-128.3M20.74 560.17c23.07-27.23 48.88-56.8 111.53-128.3M23.76 562.79c32.22-37.66 61.95-70.15 113.5-130.56M23.76 562.79c40.22-47.58 79.15-92.5 113.5-130.56M27.43 564.66C48.55 537.5 75.7 510.61 142.9 431.83M27.43 564.66c24.99-27.42 47.87-53.35 115.47-132.83M31.11 566.53c34.96-38.92 66.78-75.39 116.78-134.34M31.11 566.53c37.61-42.44 72.85-83.15 116.78-134.34M36.1 566.89c38.08-44.46 76.05-85.95 117.43-135.09M36.1 566.89c45.82-51.45 91.68-103.27 117.43-135.09M40.43 568.01c46.1-55.19 92.1-107.23 118.09-135.85M40.43 568.01c25.47-29.44 50.96-59.67 118.09-135.85M45.41 568.37c25.77-30.62 53.92-57.02 118.1-135.85M45.41 568.37c31.36-34.56 61.16-68.57 118.1-135.85M50.4 568.73c44.34-52.27 91.93-104.68 118.75-136.61M50.4 568.73c31.08-36.96 62.81-74.7 118.75-136.61M56.04 568.33c34.44-41.05 67.16-82.3 118.1-135.85M56.04 568.33c28.45-31.12 55.26-62.82 118.1-135.85M61.03 568.69c30.55-34.86 63.47-70.87 120.06-138.11M61.03 568.69c42.52-48.22 84.86-97.38 120.06-138.11M66.67 568.3c26.42-28.19 50.81-58.99 119.41-137.36M66.67 568.3c33.41-39.15 66.06-77.88 119.41-137.36M71.66 568.66c47.99-56.69 94.91-108.52 119.4-137.36M71.66 568.66c24.89-30.44 50.84-59.94 119.4-137.36M77.3 568.26c32.11-35.49 61.14-70.74 118.1-135.85M77.3 568.26c36.04-41.56 73.24-84.14 118.1-135.85M82.29 568.62c44.03-48.73 85.27-98.7 116.78-134.34M82.29 568.62c40.38-43.31 77.9-88.72 116.78-134.34M87.94 568.23c40.77-47.12 82.12-97.3 114.81-132.08M87.94 568.23c35.86-44.04 72.98-85.24 114.81-132.08M92.92 568.59c39.37-42.72 76.99-87.19 112.84-129.81M92.92 568.59c25.81-30.31 51.11-60.01 112.84-129.81M98.57 568.19c31.47-33.5 60.86-70.45 109.56-126.03M98.57 568.19c36.31-39.94 71.24-82.07 109.56-126.03M103.55 568.55c28.33-32.46 55.87-64.62 106.94-123.01M103.55 568.55c35.87-41.45 73.38-82.84 106.94-123.01M109.2 568.16c23.46-27.44 46.66-54.93 103.65-119.25M109.2 568.16c41.68-47.22 81.88-94.65 103.65-119.25m-98.67 119.61c24.13-29.27 50.62-57.43 99.07-113.96m-99.07 113.96c36.62-41.32 71.44-82.26 99.07-113.96m-93.42 113.56c25.04-26.59 48.03-54.48 94.47-108.67m-94.47 108.67c36.88-43.08 74.61-85.78 94.47-108.67m-89.49 109.03c25.21-26.95 46.16-54.81 90.54-104.15m-90.54 104.15c26.12-31.58 53.63-64 90.54-104.15M129.8 568.84c21.62-22.38 38.59-45.2 85.94-98.86m-85.94 98.86c22.44-26.98 46.65-56.61 85.94-98.86m-80.3 98.47c32.88-36.73 63.12-74.02 80.04-92.08m-80.04 92.08c20-21.77 39.26-45.36 80.04-92.08m-75.05 92.44c21.88-26.52 43.96-50.64 74.79-86.04m-74.79 86.04c29-32.94 57.61-67.42 74.79-86.04m-69.15 85.65c24.59-29.17 51.08-60.2 69.54-80m-69.54 80c25.3-26.89 48.86-56.14 69.54-80m-64.55 80.36c14.27-17.18 28.04-31.9 64.29-73.97m-64.29 73.97c20.97-24.17 44.39-50.54 64.29-73.97m-58.65 73.57c16.36-17.47 33.84-37.39 58.39-67.17m-58.39 67.17c16.67-19.43 31.7-36.39 58.39-67.17m-53.4 67.53c17.83-22.42 37.97-46.58 53.8-61.89m-53.8 61.89c19.36-21.64 38.08-44.53 53.8-61.89m-48.16 61.5c8.44-9.77 19.96-21.07 47.89-55.1m-47.89 55.1c17.56-20.71 37.11-42.07 47.89-55.1m-42.9 55.46c10.83-9.47 17.85-20.87 42.64-49.06m-42.64 49.06c14.11-15.87 27.73-31.15 42.64-49.06m-37 48.66c15.14-16.99 29-34.35 37.4-43.02m-37.4 43.02c8.53-10.26 18.37-21.45 37.4-43.02m-33.07 44.14c7.9-8.68 16.59-16.89 32.81-37.74m-32.81 37.74c11.19-12.61 21.21-23.91 32.81-37.74m-26.51 36.59c8.92-9.41 20.74-21.21 26.25-30.19m-26.25 30.19c7.34-7.97 14.04-14.72 26.25-30.19m-19.29 28.28c5.08-6.28 12.78-15.96 18.37-21.13m-18.37 21.13c6.92-6.2 11.71-14.59 18.37-21.13"/><path stroke="#000" d="M44.86 430.09c42.9.56 82.72 1.36 136.3 0m-136.3 0c29.89-.16 59.4 1.47 136.3 0m0 0c20.64.75 32.67 9.48 32 32m-32-32c19.62.68 32.83 11.65 32 32m0 0c-1.54 14.66-.03 29.35 0 74.02m0-74.02c-.25 17.24-.23 34.74 0 74.02m0 0c-1.35 22.96-12.27 30.31-32 32m32-32c-1.66 21.65-9.75 33.98-32 32m0 0c-55.42 1.95-109.36-1.03-136.3 0m136.3 0c-32.98 1.74-66.35 1.54-136.3 0m0 0c-22.29 1.14-32.52-9.15-32-32m32 32c-21.59-1.19-32.67-10.61-32-32m0 0c.5-20.52 1.06-36.55 0-74.02m0 74.02c-.12-18.16.38-34.46 0-74.02m0 0c.6-21.39 10.62-32.93 32-32m-32 32c.92-19.47 8.92-30.38 32-32"/></g><text y="16.9" dominant-baseline="alphabetic" font-family="Helvetica, Segoe UI Emoji" font-size="20" style="white-space:pre" transform="translate(83.85 485.598)">@infra</text><g fill="none" stroke-linecap="round"><path stroke="#96f2d7" stroke-width=".5" d="M342.396 444.683q0 0 0 0m0 0q0 0 0 0m-5.51 12.43c3.57-5.59 9.03-10.31 15.75-18.11m-15.75 18.11c4.12-4.42 9.46-10.55 15.75-18.11m-16.67 25.27c7.46-6.88 10.94-11.83 22.97-26.42m-22.97 26.42c8.51-9.87 18.64-21.72 22.97-26.42m-23.23 32.81c8.46-8.33 17.15-20.66 29.53-33.96m-29.53 33.96c7.14-7.81 12.18-15.1 29.53-33.96m-29.79 40.36c12.04-14.11 28.65-30.94 35.43-40.75m-35.43 40.75c12.08-14.44 25.71-29.36 35.43-40.75m-35.03 46.4c9.54-12.69 23.67-27.86 40.02-46.04m-40.02 46.04c11.32-11.71 22.16-25.04 40.02-46.04m-40.29 52.43c16.77-22.59 34.26-40.7 45.93-52.83m-45.93 52.83c13.16-15.19 25.52-30.8 45.93-52.83m-45.53 58.48c15.64-16.69 28.35-31.05 50.52-58.12m-50.52 58.12c9.73-13.23 20.83-25.77 50.52-58.12m-50.78 64.51c15.89-21.32 36.93-43.32 56.42-64.9m-56.42 64.9c21.26-23.25 40.8-46.79 56.42-64.9m-56.68 71.3c26.41-27.7 49.63-55.93 61.67-70.94m-61.67 70.94c19.17-20.79 36.84-42.08 61.67-70.94m-61.28 76.59c14.55-16.41 29.48-30.52 66.26-76.23m-66.26 76.23c17.03-21.43 34.81-41.17 66.26-76.23m-66.52 82.62c19.23-23.87 39.14-45.71 72.17-83.02m-72.17 83.02c19.5-21.22 38.25-41.87 72.17-83.02m-71.78 88.67c20.59-22.55 41.06-47.04 76.76-88.3m-76.76 88.3c23.03-26.01 46.01-53.38 76.76-88.3m-77.02 94.69c28.43-29.4 54.47-62.15 82.67-95.09m-82.67 95.09c25.65-30.21 53.49-61.23 82.67-95.09m-82.93 101.49c23.57-25.69 46.55-52.22 87.91-101.13m-87.91 101.13c34.51-39.5 67.76-76.92 87.91-101.13m-87.51 106.77c23.13-29.92 49.73-54.77 93.16-107.16m-93.16 107.16c19.4-23.52 39.76-47.05 93.16-107.16m-93.43 113.56c24.36-24.7 44.25-52.41 98.41-113.2m-98.41 113.2c26.97-32.79 55.29-63.82 98.41-113.2m-97.36 118.09c37.47-40.57 75.11-84.9 103.01-118.49m-103.01 118.49c34.36-38.63 69.77-77.88 103.01-118.49m-101.3 122.62c29.37-34.78 59.97-66.55 106.28-122.26m-106.28 122.26c25.93-28.83 51.04-57.77 106.28-122.26m-104.57 126.4c44.08-51.09 87.04-101.13 110.22-126.79m-110.22 126.79c41.8-48 84.28-96.69 110.22-126.79m-107.86 130.17c23.7-27.91 49.13-55.8 112.84-129.81m-112.84 129.81c30.1-34.31 60.46-69.84 112.84-129.81m-109.16 131.68c37.26-43.45 77.92-88.8 114.81-132.08m-114.81 132.08c38.02-43.48 77.14-86.74 114.81-132.08m-111.8 134.7c41.03-46.65 79.84-92.6 116.78-134.34m-116.78 134.34c35.08-40.45 70.53-80.16 116.78-134.34m-113.1 136.21c27.29-27.96 50.16-57.39 118.75-136.6m-118.75 136.6c32.22-35.21 65.02-72.18 118.75-136.6m-113.76 136.96c25.98-28.5 47.91-56.15 118.74-136.6m-118.74 136.6c29.21-32.3 57-64.36 118.74-136.6m-114.41 137.72c31.33-35.59 66.54-73.82 120.06-138.12m-120.06 138.12c42.46-46.07 83.11-94.31 120.06-138.12m-115.08 138.48c38.37-44.43 76.42-87.61 120.06-138.12m-120.06 138.12c32.01-36.43 61.89-71.88 120.06-138.12m-115.07 138.48c25.9-34.03 55.98-63.53 120.72-138.87m-120.72 138.87c27.47-28.46 53.57-60.11 120.72-138.87m-115.08 138.47c47.22-54.06 90.23-103.7 120.06-138.11m-120.06 138.11c44.34-49.58 87.84-99.82 120.06-138.11m-115.07 138.47c46.29-54 94.32-109.47 120.06-138.11m-120.06 138.11c25.81-31.72 50.74-61.27 120.06-138.11m-114.42 137.72c30.45-37.91 62.21-71.64 119.41-137.36m-119.41 137.36c27.86-28.31 53.61-58.82 119.41-137.36m-114.42 137.72c39.28-49.19 78.56-94.45 119.4-137.36m-119.4 137.36c47.91-54.12 96.25-107.14 119.4-137.36m-113.76 136.96c27.34-34.09 57.84-67.32 118.1-135.85m-118.1 135.85c33.53-40.5 68.16-79.95 118.1-135.85m-113.11 136.21c29.87-34.7 56.74-65.97 116.78-134.34m-116.78 134.34c28.04-32.54 56.42-64.33 116.78-134.34m-111.13 133.95c43.9-48.59 87.59-99.84 114.81-132.08m-114.81 132.08c35.68-42.63 72.71-84.87 114.81-132.08m-109.83 132.44c42.78-49.79 89.2-101.74 112.84-129.81m-112.84 129.81c44.14-51.39 87.38-101.58 112.84-129.81m-107.19 129.41c33.84-39.67 71.29-78.02 109.56-126.03m-109.56 126.03c28.01-32.62 56.25-64.74 109.56-126.03m-104.58 126.39c21.84-24.28 45.21-49.83 106.94-123.01m-106.94 123.01c35.08-38.99 68.79-77.64 106.94-123.01m-101.29 122.62c26.71-33.27 54.53-61.77 103-118.49m-103 118.49c31.33-37.31 65.4-74.88 103-118.49m-98.02 118.85c22.28-26.44 42.79-52.5 98.41-113.21m-98.41 113.21c22.1-24.23 43.57-49.77 98.41-113.21m-92.76 112.81c24.96-29.36 49.82-55.86 93.81-107.92m-93.81 107.92c31.21-36.75 61.88-71.28 93.81-107.92m-88.83 108.28c33.16-39.08 65.2-75.2 88.57-101.88m-88.57 101.88c32.47-38 65.38-75.61 88.57-101.88m-83.58 102.24c22.69-27.6 49.9-56.37 83.32-95.84m-83.32 95.84c33.2-37.61 65.1-76.93 83.32-95.84m-77.68 95.45c20.26-22.07 40.53-45.1 77.42-89.06m-77.42 89.06c24.5-29.7 50.72-59.74 77.42-89.06m-72.43 89.42c24.48-29.36 52.4-60.02 72.82-83.77m-72.82 83.77c16.02-17.59 30.06-37.17 72.82-83.77m-67.18 83.38c18.51-19.04 35.26-40.98 66.92-76.99m-66.92 76.99c23.71-25.71 46.66-52.19 66.92-76.99m-61.93 77.35c14.74-16.2 24.38-30.69 61.67-70.95m-61.67 70.95c23.75-27.16 45.15-52.28 61.67-70.95m-56.03 70.55c16.54-17.63 30.19-35.18 56.42-64.9m-56.42 64.9c19.78-25.07 41.68-49.11 56.42-64.9m-51.43 65.26c10.28-13.36 24.3-25.57 51.17-58.87m-51.17 58.87c12.26-12.91 22.58-27.67 51.17-58.87m-45.53 58.48c17-19.46 32.77-36.81 45.27-52.08m-45.27 52.08c11.23-11.83 21.68-25.38 45.27-52.08m-40.28 52.44c11.63-15.46 25.62-33.16 40.68-46.8m-40.68 46.8c10.66-13.06 22.54-25.71 40.68-46.8m-35.04 46.4c8.51-10.18 18.49-19.01 34.77-40m-34.77 40c8.95-10.98 17.14-21.17 34.77-40m-29.78 40.36c8.03-10.65 16.22-20.95 30.18-34.71m-30.18 34.71c9.87-10.71 19.82-22.77 30.18-34.71m-23.88 33.56c8.4-6.63 14.47-16.79 23.62-27.17m-23.62 27.17c5.85-7.18 12.04-13.42 23.62-27.17m-17.32 26.02c3.82-7.24 9.82-14.34 16.4-18.86m-16.4 18.86c4.8-7.32 10.53-13.91 16.4-18.86"/><path stroke="#000" d="M366.536 436.523c49.53.09 98.32.23 136.3 0m-136.3 0c51.87 1.05 102.25.15 136.3 0m0 0c22.39-1.22 33.75 8.72 32 32m-32-32c20.84-2.12 31.51 10.37 32 32m0 0c-2.13 18.42-1.93 37.29 0 74.02m0-74.02c-.57 28.05-.48 58.34 0 74.02m0 0c.71 22.91-11.17 32.33-32 32m32-32c2 22.31-10.78 33.99-32 32m0 0c-52.53.92-105.59 1.75-136.3 0m136.3 0c-34.12-.76-66.53-.72-136.3 0m0 0c-22.83-.88-31.3-11.76-32-32m32 32c-22.58 1.12-29.77-10.79-32-32m0 0c-1.3-19.19 1.66-33.5 0-74.02m0 74.02c-1.07-17.01-1.33-33.64 0-74.02m0 0c1.83-20.66 9.43-30.34 32-32m-32 32c-1.39-19.42 12.96-32.76 32-32"/></g><text y="16.9" dominant-baseline="alphabetic" font-family="Helvetica, Segoe UI Emoji" font-size="20" style="white-space:pre" transform="translate(391.674 494.7)">@modules</text><g fill="none" stroke-linecap="round"><path stroke="#b2f2bb" stroke-width=".5" d="M578.032 616.297q0 0 0 0m0 0q0 0 0 0m-4.2 10.93c3.91-5.29 9.37-9.72 14.44-16.61m-14.44 16.61c3.59-3.96 8.74-9.76 14.44-16.61m-15.35 23.76c9.22-8.7 15.75-20.48 21.65-24.91m-21.65 24.91c8.46-8.73 15.69-18.27 21.65-24.91m-21.92 31.31c4.83-6.65 14.23-13.7 28.22-32.46m-28.22 32.46c8.9-8.76 16.3-18.95 28.22-32.46m-27.82 38.1c11.15-15.24 23.78-26.23 31.49-36.23m-31.49 36.23c10.33-13 21.18-24.77 31.49-36.23m-31.75 42.63c10.45-12.57 21.89-26.7 36.74-42.27m-36.74 42.27c11.15-13.57 23.68-27.03 36.74-42.27m-37 48.66c15.16-18.91 33.15-39.53 42.64-49.05m-42.64 49.05c10.15-12.79 19.78-23.92 42.64-49.05m-42.25 54.7c11.03-10.77 22.21-24.95 47.24-54.34m-47.24 54.34c15.93-18.96 31.72-36.88 47.24-54.34m-47.5 60.73c12.78-13.95 25.04-28.96 53.14-61.13m-53.14 61.13c19.44-23.61 39.29-46.48 53.14-61.13m-52.75 66.78c18.94-21.71 41.02-46.79 57.74-66.42m-57.74 66.42c15.54-17.87 30.87-35.54 57.74-66.42m-58 72.82c23.93-26.75 49.4-52.76 63.64-73.21m-63.64 73.21c16.37-20.03 33.49-38.05 63.64-73.21m-63.9 79.6c26.94-29.28 52.62-57.97 68.89-79.24m-68.89 79.24c13.88-16.39 30.72-34.63 68.89-79.24m-68.49 84.89c26.8-32.08 51.92-60.05 74.13-85.29m-74.13 85.29c21.89-27.38 46.61-53.42 74.13-85.29m-74.4 91.68c25.64-26.92 50.35-56.54 79.39-91.32m-79.39 91.32c23.59-27.07 48.89-55.71 79.39-91.32m-78.99 96.97c19.66-20.83 36.63-45.31 84.63-97.36m-84.63 97.36c25.44-30.65 52.99-59.42 84.63-97.36m-84.89 103.76c33.73-38.2 68.63-78.39 89.88-103.4m-89.88 103.4c20.24-25.19 41.96-48.76 89.88-103.4m-91.46 111.3c31.22-37.93 62.33-74.38 97.1-111.69m-97.1 111.69c34.21-35.88 66.51-74.61 97.1-111.69m-96.05 116.58c21.57-25.25 45.14-55.02 101.04-116.22m-101.04 116.22c26.14-31.2 54.15-60.25 101.04-116.22m-99.33 120.35c26.11-28.29 50.14-61.15 104.97-120.75m-104.97 120.75c25.56-31.77 51.98-61.72 104.97-120.75m-103.26 124.89c38.8-43.97 76.17-89.89 108.25-124.53m-108.25 124.53c33.2-36.45 65.19-74.86 108.25-124.53m-105.89 127.91c33.84-39.4 68.37-79.11 111.53-128.3m-111.53 128.3c23.27-27.21 46.74-54.52 111.53-128.3m-108.51 130.92c36.52-41.97 73.41-82.76 113.5-130.56m-113.5 130.56c43.92-49.09 85.85-98.57 113.5-130.56m-109.83 132.43c30.71-37.95 60.37-72.42 115.47-132.83m-115.47 132.83c43.63-49.82 86.46-99.56 115.47-132.83m-111.79 134.7c26.26-32.31 54.66-65.31 116.78-134.34m-116.78 134.34c42.16-49.92 85.92-100.88 116.78-134.34m-111.79 134.7c28.27-30.41 56.05-61.73 117.43-135.09m-117.43 135.09c40.7-48.77 84.13-97.57 117.43-135.09m-113.1 136.21c43.9-49.18 86.02-100.25 118.09-135.85m-118.09 135.85c36.64-42.32 71.84-83.95 118.09-135.85m-113.11 136.21c39.54-47.19 79.17-92.89 118.1-135.85m-118.1 135.85c24.92-26.52 48.93-52.95 118.1-135.85m-113.11 136.21c32.29-40.52 67.58-80.27 118.75-136.61m-118.75 136.61c27.07-32.19 55.35-65.63 118.75-136.61m-113.11 136.21c28.59-35.75 56.66-68.59 118.1-135.85m-118.1 135.85c23.14-28.73 48.19-58.29 118.1-135.85m-113.11 136.21c41.41-46.64 78.28-90.23 120.06-138.11m-120.06 138.11c43.48-49.66 85.73-97.76 120.06-138.11m-114.42 137.72c32.09-35.77 62.41-69.46 119.41-137.36m-119.41 137.36c33.98-38.95 67.33-79.16 119.41-137.36m-114.42 137.72c43.03-48.8 83.67-97.27 119.4-137.36m-119.4 137.36c34.8-38.14 69.44-77.47 119.4-137.36m-113.76 136.96c26.89-30.68 53.14-58.11 118.1-135.85m-118.1 135.85c25.85-31.24 53.19-61.09 118.1-135.85m-113.11 136.21c39.68-45.98 81.99-93.78 116.78-134.34m-116.78 134.34c25.72-30.46 52.65-61.07 116.78-134.34m-111.13 133.95c24.42-28.78 48.41-54.57 114.81-132.08m-114.81 132.08c23-28.45 44.54-55.54 114.81-132.08m-109.83 132.44c30.64-34.09 58.43-67.2 112.84-129.81m-112.84 129.81c40.91-45.8 81.49-91.78 112.84-129.81m-107.19 129.41c25.85-30.32 52.3-60.45 109.56-126.03m-109.56 126.03c30.74-35.13 63.25-71.62 109.56-126.03m-104.58 126.39c38.22-39.94 71.71-83.08 106.94-123.01m-106.94 123.01c27.89-30.35 55.55-62.99 106.94-123.01m-101.29 122.62c37.05-41.45 72.08-82.28 103.65-119.25m-103.65 119.25c34.47-39.9 70.19-81.84 103.65-119.25m-98.67 119.61c21.86-21.64 41.41-47.89 99.07-113.96m-99.07 113.96c31.37-35.04 61.1-68.62 99.07-113.96m-93.42 113.56c29.66-37.47 63.58-70.22 94.47-108.67m-94.47 108.67c29.48-33.6 59.46-67.92 94.47-108.67m-89.49 109.03c35.11-41.3 68.42-81.16 90.54-104.15m-90.54 104.15c20.94-23.69 40.59-48.08 90.54-104.15m-85.55 104.51c19.45-19.66 35.5-41.69 85.94-98.86m-85.94 98.86c27.6-33.5 56.79-66.16 85.94-98.86m-80.3 98.47c28.61-33.1 60.3-68.82 80.04-92.08m-80.04 92.08c30.66-36.32 63.84-72.9 80.04-92.08m-75.05 92.44c22.63-29.2 47.09-55.56 74.79-86.04m-74.79 86.04c16.93-19.87 33.91-39 74.79-86.04m-69.15 85.65c23.73-27.38 47.09-55.07 69.54-80m-69.54 80c22.65-25.57 45.05-50.5 69.54-80m-64.55 80.36c17.49-21.23 36.21-43.79 64.29-73.97m-64.29 73.97c14.21-14.08 28.06-29.99 64.29-73.97m-58.65 73.57c19.55-21.28 34.44-41.61 58.39-67.17m-58.39 67.17c19.51-23.2 40.83-45.71 58.39-67.17m-53.4 67.53c11.61-12.37 21.98-26.58 53.8-61.89m-53.8 61.89c20.41-24.71 42.95-47.73 53.8-61.89m-48.16 61.5c13.89-15.18 23.69-31.24 47.89-55.1m-47.89 55.1c17.4-19.09 33.58-38.28 47.89-55.1m-42.9 55.46c9.56-12.99 23.67-24.44 42.64-49.06m-42.64 49.06c10.3-12.09 21.87-25.65 42.64-49.06m-37 48.66c11.31-13.82 22.26-25.9 37.4-43.02m-37.4 43.02c9.94-11.78 19.35-23.68 37.4-43.02m-33.07 44.14c10.8-12.38 23.59-26.72 32.81-37.74m-32.81 37.74c12.59-15.15 26.22-30.72 32.81-37.74m-26.51 36.59c8.09-10.2 19.32-21.06 26.25-30.19m-26.25 30.19c8.9-10.38 19.1-22.52 26.25-30.19m-19.29 28.28c2.5-2.67 9.42-7.08 18.37-21.13m-18.37 21.13c6.56-8.11 13.05-16.76 18.37-21.13"/><path stroke="#000" d="M602.172 608.137c39.78-1.09 77.01-2.58 136.3 0m-136.3 0c38.86.6 76.19 1.53 136.3 0m0 0c19.69 1.42 30.42 8.95 32 32m-32-32c19.12-1.76 30.05 11.23 32 32m0 0c-.89 30.42-1.81 60.16 0 74.02m0-74.02c1.13 17.69.9 36.58 0 74.02m0 0c.4 20.75-8.69 32.39-32 32m32-32c.73 21.82-10.81 30.65-32 32m0 0c-40-.75-82.56-1.79-136.3 0m136.3 0c-31.38-.55-64.53-.23-136.3 0m0 0c-22.08-1.26-33.77-12.51-32-32m32 32c-20.93-.53-31.29-9.43-32-32m0 0c.81-21.17.16-42.4 0-74.02m0 74.02c1.01-27.31.69-54.06 0-74.02m0 0c1-20.9 12.04-32.92 32-32m-32 32c-.16-23.08 12.83-32.28 32-32"/></g><text y="16.9" dominant-baseline="alphabetic" font-family="Helvetica, Segoe UI Emoji" font-size="20" style="white-space:pre" transform="translate(623.199 663.646)">submodules</text><g stroke-linecap="round"><path fill="none" stroke="#000" d="m1070.457 335.652-404.35 3.66m404.35-3.66-404.35 3.66M689.517 330.542c-6.59 2.47-13.18 4.94-23.41 8.77m23.41-8.77c-5.24 1.96-10.48 3.92-23.41 8.77M689.677 347.642c-6.64-2.34-13.28-4.69-23.57-8.33m23.57 8.33c-5.28-1.86-10.55-3.73-23.57-8.33"/></g><g stroke-linecap="round"><path fill="none" stroke="#000" d="M463.807 335.84c-41.46-.17-207.29-.85-248.75-1.03m248.75 1.03c-41.46-.17-207.29-.85-248.75-1.03M238.577 326.36c-5.07 1.82-10.15 3.65-23.52 8.45m23.52-8.45-23.52 8.45M238.507 343.46c-5.06-1.86-10.12-3.73-23.45-8.65m23.45 8.65c-6.91-2.55-13.82-5.09-23.45-8.65"/></g><g stroke-linecap="round"><path fill="none" stroke="#000" d="M461.36 91.172c-41.94-.3-209.7-1.48-251.64-1.78m251.64 1.78c-41.94-.3-209.7-1.48-251.64-1.78M233.27 81.012c-9.21 3.28-18.42 6.56-23.55 8.38m23.55-8.38c-7.5 2.67-14.99 5.33-23.55 8.38M233.15 98.112c-9.17-3.41-18.33-6.82-23.43-8.72m23.43 8.72c-7.46-2.78-14.92-5.55-23.43-8.72"/></g><g stroke-linecap="round"><path fill="none" stroke="#000" d="M111.018 256.562c.15-16.3.74-81.51.89-97.81m-.89 97.81c.15-16.3.74-81.51.89-97.81M120.248 182.322c-2.37-6.7-4.74-13.39-8.34-23.57m8.34 23.57c-2.95-8.33-5.9-16.66-8.34-23.57M103.148 182.162c2.48-6.65 4.97-13.3 8.76-23.41m-8.76 23.41c3.09-8.27 6.19-16.55 8.76-23.41"/></g><g stroke-linecap="round"><path fill="none" stroke="#000" d="M561.839 264.564c-.3-17.34-1.48-86.7-1.78-104.04m1.78 104.04c-.3-17.34-1.48-86.7-1.78-104.04"/><path fill="none" stroke="#000" d="M569.009 183.874c-2.24-5.84-4.48-11.69-8.95-23.35m8.95 23.35c-3.36-8.77-6.72-17.54-8.95-23.35M551.909 184.164c2.04-5.92 4.08-11.83 8.15-23.64m-8.15 23.64c3.07-8.88 6.13-17.76 8.15-23.64"/></g><g stroke-linecap="round"><path fill="none" stroke="#000" d="M478.255 271.678c-45.5-20.6-227.49-103-272.98-123.6m272.98 123.6c-45.5-20.6-227.49-103-272.98-123.6M230.205 149.978c-9.02-.68-18.03-1.37-24.93-1.9m24.93 1.9c-5.66-.43-11.32-.86-24.93-1.9"/><path fill="none" stroke="#000" d="M223.145 165.558c-6.46-6.32-12.92-12.64-17.87-17.48m17.87 17.48c-4.06-3.97-8.11-7.93-17.87-17.48"/></g><g stroke-linecap="round"><path fill="none" stroke="#000" d="M621.415 403.278c7.11 6.52 35.57 32.6 42.68 39.12m-42.68-39.12c7.11 6.52 35.57 32.6 42.68 39.12"/><path fill="none" stroke="#000" d="M641.005 432.828c8.65 3.59 17.31 7.18 23.09 9.57m-23.09-9.57c6.54 2.71 13.08 5.42 23.09 9.57"/><path fill="none" stroke="#000" d="M652.555 420.228c4.33 8.31 8.65 16.62 11.54 22.17m-11.54-22.17c3.27 6.28 6.54 12.56 11.54 22.17"/></g><g stroke-linecap="round"><path fill="none" stroke="#000" d="M673.877 575.782c.3 5.34 1.48 26.68 1.78 32.01m-1.78-32.01c.3 5.34 1.48 26.68 1.78 32.01M669.347 593.052c1.97 4.6 3.94 9.2 6.31 14.74m-6.31-14.74c1.27 2.96 2.53 5.92 6.31 14.74M680.297 592.452c-1.45 4.79-2.9 9.57-4.64 15.34m4.64-15.34c-.93 3.08-1.87 6.16-4.64 15.34"/></g><g stroke-linecap="round"><path fill="none" stroke="#000" d="M507.598 403.278c-6.82 5.93-34.09 29.64-40.9 35.57m40.9-35.57c-6.82 5.93-34.09 29.64-40.9 35.57M478.808 416.978c-2.82 5.1-5.65 10.21-12.11 21.87m12.11-21.87c-4.6 8.3-9.2 16.6-12.11 21.87M490.038 429.878c-5.45 2.1-10.9 4.19-23.34 8.97m23.34-8.97c-8.87 3.41-17.73 6.81-23.34 8.97"/></g><g stroke-linecap="round"><path fill="none" stroke="#000" d="M109.24 396.165c-.15 5.63-.74 28.16-.89 33.79m.89-33.79c-.15 5.63-.74 28.16-.89 33.79M102.99 413.925c1.41 4.22 2.82 8.44 5.36 16.03m-5.36-16.03c1.94 5.81 3.89 11.62 5.36 16.03M114.55 414.235c-1.63 4.14-3.27 8.28-6.2 15.72m6.2-15.72c-2.25 5.7-4.5 11.4-6.2 15.72"/></g><g stroke-linecap="round"><path fill="none" stroke="#000" d="M1076.681 266.343c-68.76-20.6-343.82-103-412.59-123.6m412.59 123.6c-68.76-20.6-343.82-103-412.59-123.6M689.051 141.293c-6.85.4-13.71.8-24.96 1.45m24.96-1.45c-5.83.34-11.67.68-24.96 1.45M684.141 157.673c-5.5-4.1-11.01-8.2-20.05-14.93m20.05 14.93c-4.68-3.49-9.37-6.98-20.05-14.93"/></g><g fill="none" stroke-linecap="round"><path stroke="#ffc9c9" stroke-width=".5" d="M1075.05 18.16q0 0 0 0m0 0q0 0 0 0m-4.2 10.93c6.1-6.12 10.87-12.17 14.44-16.61m-14.44 16.61c2.73-4.33 6.01-6.12 14.44-16.61m-15.35 23.76c5.45-5.14 10.91-11.73 21.65-24.91m-21.65 24.91c6.29-7.24 14.14-14.91 21.65-24.91m-21.92 31.31c12.35-12.58 22.28-25.84 28.22-32.46m-28.22 32.46c9.48-10.1 20.11-22.14 28.22-32.46m-27.82 38.1c9.05-12.15 15.73-18.87 31.49-36.23m-31.49 36.23c8.69-9.45 15.1-18.83 31.49-36.23m-31.75 42.63c11.26-14.87 23.5-24.5 36.74-42.27m-36.74 42.27c14.21-15.03 26.83-31.35 36.74-42.27m-37 48.66c10.64-11.65 22.85-24.31 42.64-49.05m-42.64 49.05c11.6-14.09 25.1-29.53 42.64-49.05m-42.25 54.7c11.32-15.2 23.26-25.62 47.24-54.34m-47.24 54.34c10.69-13.33 22.6-27.05 47.24-54.34m-47.5 60.73c19.15-22.4 36.98-42.3 53.14-61.13m-53.14 61.13c21.91-23.06 42.29-48.93 53.14-61.13m-52.75 66.78c21.81-23.4 40.81-44.63 57.74-66.42m-57.74 66.42c18.48-21.51 37.91-43.66 57.74-66.42m-58 72.82c24.6-27.52 45.49-54.58 63.64-73.21m-63.64 73.21c21.51-25.93 44.38-51.53 63.64-73.21m-63.9 79.6c26.15-28.65 52.84-61.36 68.89-79.24m-68.89 79.24c23.61-25.32 44.85-51.82 68.89-79.24m-68.49 84.89c23.23-24.79 45.34-49.7 74.13-85.29m-74.13 85.29c18.58-21.51 35.61-41.06 74.13-85.29m-74.4 91.68c23.46-26.71 48.16-58.44 79.39-91.32m-79.39 91.32c25.37-29.9 51.82-60.99 79.39-91.32m-78.99 96.97c30.49-34.47 57.9-66.24 84.63-97.36m-84.63 97.36c32.44-37.52 63.76-74.37 84.63-97.36m-84.89 103.76c26.43-30.34 53.58-59.24 89.88-103.4m-89.88 103.4c32.99-39.46 66.96-77.66 89.88-103.4m-91.46 111.3c24.29-25.78 45.32-53.18 97.1-111.69m-97.1 111.69c37.69-42.92 75.89-87.26 97.1-111.69m-96.05 116.58c22.91-24.09 45.35-53.76 101.04-116.22m-101.04 116.22c27.42-32.37 55.43-62.45 101.04-116.22M1071 132.56c33.55-42.51 72.23-81.12 104.97-120.75M1071 132.56c33.56-37.56 67.8-76.91 104.97-120.75M1072.71 136.7c28.09-32.52 58.19-62.75 108.25-124.53M1072.71 136.7c40.95-47.17 83.64-96.09 108.25-124.53m-105.89 127.91c42.25-45.8 81.4-92.71 111.53-128.3m-111.53 128.3c34.35-38.95 69.78-79.76 111.53-128.3M1078.09 142.7c28.21-31.53 57.99-62.06 113.5-130.56m-113.5 130.56c31.2-32.62 59.8-67.55 113.5-130.56m-109.83 132.43c25.55-28.69 49.57-59.28 115.47-132.83m-115.47 132.83c42.03-47.31 84.67-95.73 115.47-132.83m-111.79 134.7c34.73-41.48 71.27-83.79 116.78-134.34m-116.78 134.34c25.72-26.56 49.05-55.91 116.78-134.34m-111.79 134.7c24.76-30.64 51.65-61.5 117.43-135.09M1090.43 146.8c37.85-45.44 77.7-90.01 117.43-135.09m-113.1 136.21c32.27-34.23 59.73-68.11 118.09-135.85m-118.09 135.85c36.6-41.18 70.79-80.84 118.09-135.85m-113.11 136.21c28.23-32.03 60.64-64.96 118.1-135.85m-118.1 135.85c41.32-48.55 83.9-96.34 118.1-135.85m-113.11 136.21c26.46-27.96 49.29-57.77 118.75-136.61m-118.75 136.61c41.98-48.76 83.44-96.84 118.75-136.61m-113.11 136.21c41.36-46.57 81.42-94.54 118.1-135.85m-118.1 135.85c25.18-29.52 49.47-58.21 118.1-135.85M1115.36 148.6c38.45-45.04 77.92-89.81 120.06-138.11M1115.36 148.6c46.13-53.23 93.84-109.24 120.06-138.11M1121 148.21c48-54.21 94.41-106.69 119.41-137.36M1121 148.21c46.38-51.45 90.87-105.24 119.41-137.36m-114.42 137.72c32.14-37.74 69.7-77.09 119.4-137.36m-119.4 137.36c45.06-51.35 90.02-102.83 119.4-137.36m-113.76 136.96c24.13-27.53 46.11-55.84 118.1-135.85m-118.1 135.85c44.95-50.87 90.04-102 118.1-135.85m-113.11 136.21c29.53-32.78 55.5-64.44 116.78-134.34m-116.78 134.34c29.49-33.86 57.07-66.35 116.78-134.34m-111.13 133.95c46.05-54.68 91.73-106.57 114.81-132.08m-114.81 132.08c46.26-52.04 89.61-104.18 114.81-132.08M1147.25 148.5c22.85-27.94 48.64-57.93 112.84-129.81M1147.25 148.5c32-37.16 64.02-74.72 112.84-129.81M1152.9 148.1c42.72-47.81 85.45-96.18 109.56-126.03M1152.9 148.1c32.72-36.79 63.49-71.44 109.56-126.03m-104.58 126.39c37.36-43.59 73.43-85.34 106.94-123.01m-106.94 123.01c40.63-45.11 79.81-88.89 106.94-123.01m-101.29 122.62c38.39-43.83 76.12-84.14 103.65-119.25m-103.65 119.25c39.17-44.53 79.03-89.9 103.65-119.25m-98.67 119.61c25.51-27.53 48.31-56.57 99.07-113.96m-99.07 113.96c32.47-37.34 64.43-73.42 99.07-113.96m-93.42 113.56c27.47-28.61 54.73-58.95 94.47-108.67m-94.47 108.67c25.41-28.87 49.1-56.3 94.47-108.67m-89.49 109.03c33.17-38.65 68.35-77.8 90.54-104.15m-90.54 104.15c33.23-37.11 64.71-72.66 90.54-104.15m-85.55 104.51c24.72-31.25 53.79-60.39 85.94-98.86m-85.94 98.86c31.87-38.2 64.32-74.84 85.94-98.86m-80.3 98.47c27.17-28.21 51.37-59.51 80.04-92.08m-80.04 92.08c16.81-18.41 34.05-37.56 80.04-92.08m-75.05 92.44c26.17-31.63 56.37-64.55 74.79-86.04m-74.79 86.04c20.37-22.04 39.63-46.25 74.79-86.04m-69.15 85.65c22.94-28.48 47.52-54.85 69.54-80m-69.54 80c14.81-18.46 30.71-35.1 69.54-80m-64.55 80.36c13.29-18.33 31.26-35.16 64.29-73.97m-64.29 73.97c19.09-21.01 37.03-42.75 64.29-73.97m-58.65 73.57c23.3-26.34 46.22-54.88 58.39-67.17m-58.39 67.17c16.61-19.51 33.54-38.03 58.39-67.17m-53.4 67.53c20.08-21.18 38.43-43.62 53.8-61.89m-53.8 61.89c15.7-19.91 32.75-38.52 53.8-61.89m-48.16 61.5c11.26-15.57 24.65-32.79 47.89-55.1m-47.89 55.1c12.33-14.76 24.54-28.96 47.89-55.1m-42.9 55.46c12.28-12.19 22.19-26.39 42.64-49.06m-42.64 49.06c11.87-13.33 21.26-25.11 42.64-49.06m-37 48.66c11.26-12.17 24.16-26.45 37.4-43.02m-37.4 43.02c13.26-15.26 27.06-31.41 37.4-43.02m-33.07 44.14c9.08-8.67 14.01-18.04 32.81-37.74m-32.81 37.74c10.04-10.53 19.62-22.56 32.81-37.74m-26.51 36.59c10.03-11.31 15.48-19.91 26.25-30.19m-26.25 30.19c10.64-12.44 20.16-23.88 26.25-30.19m-19.29 28.28c6.97-7.01 13.82-12.59 18.37-21.13m-18.37 21.13c4.64-6.06 8.83-11.55 18.37-21.13"/><path stroke="#000" d="M1099.19 10c34.61-.22 69.5-.7 136.3 0m-136.3 0c39.08 1.23 77.55 1.16 136.3 0m0 0c19.48 1.51 32.57 11.84 32 32m-32-32c21.31-2.25 33.21 12.45 32 32m0 0c-.77 24.11-1.17 52.98 0 74.02m0-74.02c-.2 27.69.71 53.13 0 74.02m0 0c-1.83 19.43-12.18 30.1-32 32m32-32c-2.15 21.44-10.9 31.34-32 32m0 0c-55.17-.15-109.35-.56-136.3 0m136.3 0c-43.12.38-86.21-.34-136.3 0m0 0c-20.06 1.84-31.7-12.33-32-32m32 32c-22.29.84-30.87-8.44-32-32m0 0c1.97-19.12 1.94-42.19 0-74.02m0 74.02c1.53-22.9-.21-46.65 0-74.02m0 0c-.04-20.35 11.74-32.02 32-32m-32 32c-1.33-21.54 9.68-33.64 32-32"/></g><text x="48.9" y="16.9" dominant-baseline="alphabetic" font-family="Helvetica, Segoe UI Emoji" font-size="20" style="white-space:pre" text-anchor="middle" transform="translate(1118.438 67.512)">/migrations</text><g stroke-linecap="round"><path fill="none" stroke="#000" d="M1062.338 87.703c-65.83 35.22-329.17 176.09-395 211.31m395-211.31c-65.83 35.22-329.17 176.09-395 211.31"/><path fill="none" stroke="#000" d="m684.018 280.393-16.68 18.62m16.68-18.62c-4.75 5.3-9.5 10.6-16.68 18.62M692.088 295.473c-9.83 1.4-19.65 2.81-24.75 3.54m24.75-3.54c-7.05 1.01-14.09 2.01-24.75 3.54"/></g><g stroke-linecap="round"><path fill="none" stroke="#000" d="M1060.338 88.44c-66 .26-330 1.31-396 1.57m396-1.57c-66 .26-330 1.31-396 1.57"/><path fill="none" stroke="#000" d="M687.798 81.37c-4.88 1.8-9.77 3.6-23.46 8.64m23.46-8.64c-5.58 2.05-11.15 4.11-23.46 8.64M687.868 98.47c-4.9-1.76-9.8-3.52-23.53-8.46m23.53 8.46c-5.6-2.01-11.19-4.02-23.53-8.46"/></g></svg>